%TF.GenerationSoftware,KiCad,Pcbnew,9.0.5*%
%TF.CreationDate,2026-06-21T18:39:48+05:30*%
%TF.ProjectId,Split_keyboard,53706c69-745f-46b6-9579-626f6172642e,rev?*%
%TF.SameCoordinates,Original*%
%TF.FileFunction,Soldermask,Top*%
%TF.FilePolarity,Negative*%
%FSLAX46Y46*%
G04 Gerber Fmt 4.6, Leading zero omitted, Abs format (unit mm)*
G04 Created by KiCad (PCBNEW 9.0.5) date 2026-06-21 18:39:48*
%MOMM*%
%LPD*%
G01*
G04 APERTURE LIST*
%ADD10C,2.200000*%
%ADD11C,2.000000*%
%ADD12C,1.700000*%
%ADD13C,3.400000*%
G04 APERTURE END LIST*
D10*
%TO.C,H8*%
X71120000Y-106680000D03*
%TD*%
D11*
%TO.C,TP4*%
X60960000Y-152400000D03*
%TD*%
D10*
%TO.C,H11*%
X218440000Y-109220000D03*
%TD*%
%TO.C,H1*%
X299720000Y-71120000D03*
%TD*%
D11*
%TO.C,TP2*%
X274955000Y-137160000D03*
%TD*%
D10*
%TO.C,H4*%
X30480000Y-109220000D03*
%TD*%
D11*
%TO.C,TP3*%
X63500000Y-144780000D03*
%TD*%
D10*
%TO.C,H2*%
X30480000Y-71120000D03*
%TD*%
%TO.C,H5*%
X259080000Y-68580000D03*
%TD*%
%TO.C,H3*%
X299720000Y-111760000D03*
%TD*%
%TO.C,H6*%
X71120000Y-68580000D03*
%TD*%
%TO.C,H12*%
X111760000Y-109220000D03*
%TD*%
%TO.C,H9*%
X218440000Y-68580000D03*
%TD*%
%TO.C,H10*%
X111760000Y-68580000D03*
%TD*%
%TO.C,H7*%
X259080000Y-106680000D03*
%TD*%
D11*
%TO.C,TP1*%
X272573750Y-144303750D03*
%TD*%
D12*
%TO.C,SW32*%
X116420000Y-121920000D03*
D13*
X121920000Y-121920000D03*
D12*
X127420000Y-121920000D03*
%TD*%
%TO.C,SW6*%
X185736860Y-150070000D03*
D13*
X190500000Y-147320000D03*
D12*
X195263140Y-144570000D03*
%TD*%
%TO.C,SW26*%
X304380000Y-81280000D03*
D13*
X309880000Y-81280000D03*
D12*
X315380000Y-81280000D03*
%TD*%
%TO.C,SW28*%
X304380000Y-121920000D03*
D13*
X309880000Y-121920000D03*
D12*
X315380000Y-121920000D03*
%TD*%
%TO.C,SW31*%
X116420000Y-101600000D03*
D13*
X121920000Y-101600000D03*
D12*
X127420000Y-101600000D03*
%TD*%
%TO.C,SW49*%
X35140000Y-60960000D03*
D13*
X40640000Y-60960000D03*
D12*
X46140000Y-60960000D03*
%TD*%
%TO.C,SW15*%
X243420000Y-116840000D03*
D13*
X248920000Y-116840000D03*
D12*
X254420000Y-116840000D03*
%TD*%
%TO.C,SW22*%
X284060000Y-81280000D03*
D13*
X289560000Y-81280000D03*
D12*
X295060000Y-81280000D03*
%TD*%
%TO.C,SW14*%
X243420000Y-96520000D03*
D13*
X248920000Y-96520000D03*
D12*
X254420000Y-96520000D03*
%TD*%
%TO.C,SW29*%
X116420000Y-60960000D03*
D13*
X121920000Y-60960000D03*
D12*
X127420000Y-60960000D03*
%TD*%
%TO.C,SW36*%
X96100000Y-78740000D03*
D13*
X101600000Y-78740000D03*
D12*
X107100000Y-78740000D03*
%TD*%
%TO.C,SW11*%
X212940000Y-142240000D03*
D13*
X218440000Y-142240000D03*
D12*
X223940000Y-142240000D03*
%TD*%
%TO.C,SW48*%
X55460000Y-119380000D03*
D13*
X60960000Y-119380000D03*
D12*
X66460000Y-119380000D03*
%TD*%
%TO.C,SW3*%
X202780000Y-101600000D03*
D13*
X208280000Y-101600000D03*
D12*
X213780000Y-101600000D03*
%TD*%
%TO.C,SW19*%
X263740000Y-99060000D03*
D13*
X269240000Y-99060000D03*
D12*
X274740000Y-99060000D03*
%TD*%
%TO.C,SW12*%
X243420000Y-55880000D03*
D13*
X248920000Y-55880000D03*
D12*
X254420000Y-55880000D03*
%TD*%
%TO.C,SW2*%
X202780000Y-81280000D03*
D13*
X208280000Y-81280000D03*
D12*
X213780000Y-81280000D03*
%TD*%
%TO.C,SW33*%
X154623140Y-132290000D03*
D13*
X149860000Y-129540000D03*
D12*
X145096860Y-126790000D03*
%TD*%
%TO.C,SW40*%
X75780000Y-55880000D03*
D13*
X81280000Y-55880000D03*
D12*
X86780000Y-55880000D03*
%TD*%
%TO.C,SW42*%
X75780000Y-96520000D03*
D13*
X81280000Y-96520000D03*
D12*
X86780000Y-96520000D03*
%TD*%
%TO.C,SW20*%
X263740000Y-119380000D03*
D13*
X269240000Y-119380000D03*
D12*
X274740000Y-119380000D03*
%TD*%
%TO.C,SW24*%
X284060000Y-121920000D03*
D13*
X289560000Y-121920000D03*
D12*
X295060000Y-121920000D03*
%TD*%
%TO.C,SW9*%
X223100000Y-99060000D03*
D13*
X228600000Y-99060000D03*
D12*
X234100000Y-99060000D03*
%TD*%
%TO.C,SW44*%
X85940000Y-142240000D03*
D13*
X91440000Y-142240000D03*
D12*
X96940000Y-142240000D03*
%TD*%
%TO.C,SW46*%
X55460000Y-78740000D03*
D13*
X60960000Y-78740000D03*
D12*
X66460000Y-78740000D03*
%TD*%
%TO.C,SW39*%
X108800000Y-142240000D03*
D13*
X114300000Y-142240000D03*
D12*
X119800000Y-142240000D03*
%TD*%
%TO.C,SW16*%
X235800000Y-139700000D03*
D13*
X241300000Y-139700000D03*
D12*
X246800000Y-139700000D03*
%TD*%
%TO.C,SW7*%
X223100000Y-58420000D03*
D13*
X228600000Y-58420000D03*
D12*
X234100000Y-58420000D03*
%TD*%
%TO.C,SW54*%
X14820000Y-81280000D03*
D13*
X20320000Y-81280000D03*
D12*
X25820000Y-81280000D03*
%TD*%
%TO.C,SW18*%
X263740000Y-78740000D03*
D13*
X269240000Y-78740000D03*
D12*
X274740000Y-78740000D03*
%TD*%
%TO.C,SW27*%
X304380000Y-101600000D03*
D13*
X309880000Y-101600000D03*
D12*
X315380000Y-101600000D03*
%TD*%
%TO.C,SW41*%
X75780000Y-76200000D03*
D13*
X81280000Y-76200000D03*
D12*
X86780000Y-76200000D03*
%TD*%
%TO.C,SW37*%
X96100000Y-99060000D03*
D13*
X101600000Y-99060000D03*
D12*
X107100000Y-99060000D03*
%TD*%
%TO.C,SW55*%
X14820000Y-101600000D03*
D13*
X20320000Y-101600000D03*
D12*
X25820000Y-101600000D03*
%TD*%
%TO.C,SW23*%
X284060000Y-101600000D03*
D13*
X289560000Y-101600000D03*
D12*
X295060000Y-101600000D03*
%TD*%
%TO.C,SW13*%
X243420000Y-76200000D03*
D13*
X248920000Y-76200000D03*
D12*
X254420000Y-76200000D03*
%TD*%
%TO.C,SW17*%
X263740000Y-58420000D03*
D13*
X269240000Y-58420000D03*
D12*
X274740000Y-58420000D03*
%TD*%
%TO.C,SW1*%
X202780000Y-60960000D03*
D13*
X208280000Y-60960000D03*
D12*
X213780000Y-60960000D03*
%TD*%
%TO.C,SW38*%
X96100000Y-119380000D03*
D13*
X101600000Y-119380000D03*
D12*
X107100000Y-119380000D03*
%TD*%
%TO.C,SW45*%
X55460000Y-58420000D03*
D13*
X60960000Y-58420000D03*
D12*
X66460000Y-58420000D03*
%TD*%
%TO.C,SW52*%
X35140000Y-121920000D03*
D13*
X40640000Y-121920000D03*
D12*
X46140000Y-121920000D03*
%TD*%
%TO.C,SW43*%
X75780000Y-116840000D03*
D13*
X81280000Y-116840000D03*
D12*
X86780000Y-116840000D03*
%TD*%
%TO.C,SW53*%
X14820000Y-60960000D03*
D13*
X20320000Y-60960000D03*
D12*
X25820000Y-60960000D03*
%TD*%
%TO.C,SW25*%
X304380000Y-60960000D03*
D13*
X309880000Y-60960000D03*
D12*
X315380000Y-60960000D03*
%TD*%
%TO.C,SW35*%
X96100000Y-58420000D03*
D13*
X101600000Y-58420000D03*
D12*
X107100000Y-58420000D03*
%TD*%
%TO.C,SW21*%
X284060000Y-60960000D03*
D13*
X289560000Y-60960000D03*
D12*
X295060000Y-60960000D03*
%TD*%
%TO.C,SW50*%
X35140000Y-81280000D03*
D13*
X40640000Y-81280000D03*
D12*
X46140000Y-81280000D03*
%TD*%
%TO.C,SW5*%
X175576860Y-132290000D03*
D13*
X180340000Y-129540000D03*
D12*
X185103140Y-126790000D03*
%TD*%
%TO.C,SW47*%
X55460000Y-99060000D03*
D13*
X60960000Y-99060000D03*
D12*
X66460000Y-99060000D03*
%TD*%
%TO.C,SW56*%
X14820000Y-121920000D03*
D13*
X20320000Y-121920000D03*
D12*
X25820000Y-121920000D03*
%TD*%
%TO.C,SW34*%
X144463140Y-150070000D03*
D13*
X139700000Y-147320000D03*
D12*
X134936860Y-144570000D03*
%TD*%
%TO.C,SW8*%
X223100000Y-78740000D03*
D13*
X228600000Y-78740000D03*
D12*
X234100000Y-78740000D03*
%TD*%
%TO.C,SW4*%
X202780000Y-121920000D03*
D13*
X208280000Y-121920000D03*
D12*
X213780000Y-121920000D03*
%TD*%
%TO.C,SW51*%
X35140000Y-101600000D03*
D13*
X40640000Y-101600000D03*
D12*
X46140000Y-101600000D03*
%TD*%
%TO.C,SW10*%
X223100000Y-119380000D03*
D13*
X228600000Y-119380000D03*
D12*
X234100000Y-119380000D03*
%TD*%
%TO.C,SW30*%
X116420000Y-81280000D03*
D13*
X121920000Y-81280000D03*
D12*
X127420000Y-81280000D03*
%TD*%
M02*
