%TF.GenerationSoftware,KiCad,Pcbnew,9.0.5*%
%TF.CreationDate,2026-06-21T18:39:48+05:30*%
%TF.ProjectId,Split_keyboard,53706c69-745f-46b6-9579-626f6172642e,rev?*%
%TF.SameCoordinates,Original*%
%TF.FileFunction,Copper,L1,Top*%
%TF.FilePolarity,Positive*%
%FSLAX46Y46*%
G04 Gerber Fmt 4.6, Leading zero omitted, Abs format (unit mm)*
G04 Created by KiCad (PCBNEW 9.0.5) date 2026-06-21 18:39:48*
%MOMM*%
%LPD*%
G01*
G04 APERTURE LIST*
G04 Aperture macros list*
%AMRoundRect*
0 Rectangle with rounded corners*
0 $1 Rounding radius*
0 $2 $3 $4 $5 $6 $7 $8 $9 X,Y pos of 4 corners*
0 Add a 4 corners polygon primitive as box body*
4,1,4,$2,$3,$4,$5,$6,$7,$8,$9,$2,$3,0*
0 Add four circle primitives for the rounded corners*
1,1,$1+$1,$2,$3*
1,1,$1+$1,$4,$5*
1,1,$1+$1,$6,$7*
1,1,$1+$1,$8,$9*
0 Add four rect primitives between the rounded corners*
20,1,$1+$1,$2,$3,$4,$5,0*
20,1,$1+$1,$4,$5,$6,$7,0*
20,1,$1+$1,$6,$7,$8,$9,0*
20,1,$1+$1,$8,$9,$2,$3,0*%
G04 Aperture macros list end*
%TA.AperFunction,ComponentPad*%
%ADD10C,1.800000*%
%TD*%
%TA.AperFunction,ComponentPad*%
%ADD11RoundRect,0.450000X-0.450000X0.450000X-0.450000X-0.450000X0.450000X-0.450000X0.450000X0.450000X0*%
%TD*%
%TA.AperFunction,ComponentPad*%
%ADD12O,4.340000X1.800000*%
%TD*%
%TA.AperFunction,SMDPad,CuDef*%
%ADD13C,2.000000*%
%TD*%
%TA.AperFunction,ComponentPad*%
%ADD14RoundRect,0.450000X0.450000X-0.450000X0.450000X0.450000X-0.450000X0.450000X-0.450000X-0.450000X0*%
%TD*%
%TA.AperFunction,ComponentPad*%
%ADD15C,3.300000*%
%TD*%
%TA.AperFunction,Conductor*%
%ADD16C,0.200000*%
%TD*%
G04 APERTURE END LIST*
D10*
%TO.P,U3,1,P0.06*%
%TO.N,SDA*%
X318770000Y-137160000D03*
%TO.P,U3,2,P0.08*%
%TO.N,SCL*%
X316230000Y-137160000D03*
D11*
%TO.P,U3,3,GND*%
%TO.N,GND*%
X313690000Y-137160000D03*
%TO.P,U3,4,GND*%
X311150000Y-137160000D03*
D10*
%TO.P,U3,5,P0.17*%
%TO.N,C1*%
X308610000Y-137160000D03*
%TO.P,U3,6,P0.20*%
%TO.N,C2*%
X306070000Y-137160000D03*
%TO.P,U3,7,P0.22*%
%TO.N,C3*%
X303530000Y-137160000D03*
%TO.P,U3,8,P0.24*%
%TO.N,C4*%
X300990000Y-137160000D03*
%TO.P,U3,9,P1.00*%
%TO.N,C5*%
X298450000Y-137160000D03*
%TO.P,U3,10,P0.11*%
%TO.N,C6*%
X295910000Y-137160000D03*
%TO.P,U3,11,P1.04-LF*%
%TO.N,unconnected-(U3-P1.04-LF-Pad11)*%
X293370000Y-137160000D03*
%TO.P,U3,12,P1.06-LF*%
%TO.N,unconnected-(U3-P1.06-LF-Pad12)*%
X290830000Y-137160000D03*
D12*
%TO.P,U3,13,BAT+*%
%TO.N,VBAT*%
X320040000Y-152400000D03*
D11*
%TO.P,U3,14,GND*%
%TO.N,GND*%
X316230000Y-152400000D03*
D10*
%TO.P,U3,15,RST*%
%TO.N,unconnected-(U3-RST-Pad15)*%
X313690000Y-152400000D03*
%TO.P,U3,16,3V3*%
%TO.N,+3.3V*%
X311150000Y-152400000D03*
%TO.P,U3,17,P0.31-LF*%
%TO.N,BT_PIN*%
X308610000Y-152400000D03*
%TO.P,U3,18,P0.29-LF*%
%TO.N,R1*%
X306070000Y-152400000D03*
%TO.P,U3,19,P0.02-LF*%
%TO.N,R2*%
X303530000Y-152400000D03*
%TO.P,U3,20,P1.15-LF*%
%TO.N,R3*%
X300990000Y-152400000D03*
%TO.P,U3,21,P1.13-LF*%
%TO.N,R4*%
X298450000Y-152400000D03*
%TO.P,U3,22,P1.11-LF*%
%TO.N,R5*%
X295910000Y-152400000D03*
%TO.P,U3,23,P0.10-LF*%
%TO.N,R6*%
X293370000Y-152400000D03*
%TO.P,U3,24,P0.09-LF*%
%TO.N,unconnected-(U3-P0.09-LF-Pad24)*%
X290830000Y-152400000D03*
%TO.P,U3,25,P1.01-LF*%
%TO.N,unconnected-(U3-P1.01-LF-Pad25)*%
X293923720Y-140233400D03*
%TO.P,U3,26,P1.02-LF*%
%TO.N,unconnected-(U3-P1.02-LF-Pad26)*%
X293923720Y-142773400D03*
%TO.P,U3,27,P1.07-LF*%
%TO.N,unconnected-(U3-P1.07-LF-Pad27)*%
X293923720Y-145313400D03*
D11*
%TO.P,U3,28,GND*%
%TO.N,GND*%
X321310000Y-137160000D03*
D10*
%TO.P,U3,29,BAT+*%
%TO.N,VBAT*%
X321310000Y-152400000D03*
%TD*%
D13*
%TO.P,TP4,1,1*%
%TO.N,GND*%
X60960000Y-152400000D03*
%TD*%
%TO.P,TP2,1,1*%
%TO.N,GND*%
X274955000Y-137160000D03*
%TD*%
%TO.P,TP3,1,1*%
%TO.N,VBAT*%
X63500000Y-144780000D03*
%TD*%
D10*
%TO.P,U4,1,P0.06*%
%TO.N,SDA*%
X13970000Y-152400000D03*
%TO.P,U4,2,P0.08*%
%TO.N,SCL*%
X16510000Y-152400000D03*
D14*
%TO.P,U4,3,GND*%
%TO.N,GND*%
X19050000Y-152400000D03*
%TO.P,U4,4,GND*%
X21590000Y-152400000D03*
D10*
%TO.P,U4,5,P0.17*%
%TO.N,C1*%
X24130000Y-152400000D03*
%TO.P,U4,6,P0.20*%
%TO.N,C2*%
X26670000Y-152400000D03*
%TO.P,U4,7,P0.22*%
%TO.N,C3*%
X29210000Y-152400000D03*
%TO.P,U4,8,P0.24*%
%TO.N,C4*%
X31750000Y-152400000D03*
%TO.P,U4,9,P1.00*%
%TO.N,C5*%
X34290000Y-152400000D03*
%TO.P,U4,10,P0.11*%
%TO.N,C6*%
X36830000Y-152400000D03*
%TO.P,U4,11,P1.04-LF*%
%TO.N,unconnected-(U4-P1.04-LF-Pad11)*%
X39370000Y-152400000D03*
%TO.P,U4,12,P1.06-LF*%
%TO.N,unconnected-(U4-P1.06-LF-Pad12)*%
X41910000Y-152400000D03*
D12*
%TO.P,U4,13,BAT+*%
%TO.N,VBAT*%
X12700000Y-137160000D03*
D14*
%TO.P,U4,14,GND*%
%TO.N,GND*%
X16510000Y-137160000D03*
D10*
%TO.P,U4,15,RST*%
%TO.N,unconnected-(U4-RST-Pad15)*%
X19050000Y-137160000D03*
%TO.P,U4,16,3V3*%
%TO.N,+3.3V*%
X21590000Y-137160000D03*
%TO.P,U4,17,P0.31-LF*%
%TO.N,BT_PIN*%
X24130000Y-137160000D03*
%TO.P,U4,18,P0.29-LF*%
%TO.N,R1*%
X26670000Y-137160000D03*
%TO.P,U4,19,P0.02-LF*%
%TO.N,R2*%
X29210000Y-137160000D03*
%TO.P,U4,20,P1.15-LF*%
%TO.N,R3*%
X31750000Y-137160000D03*
%TO.P,U4,21,P1.13-LF*%
%TO.N,R4*%
X34290000Y-137160000D03*
%TO.P,U4,22,P1.11-LF*%
%TO.N,R5*%
X36830000Y-137160000D03*
%TO.P,U4,23,P0.10-LF*%
%TO.N,R6*%
X39370000Y-137160000D03*
%TO.P,U4,24,P0.09-LF*%
%TO.N,unconnected-(U4-P0.09-LF-Pad24)*%
X41910000Y-137160000D03*
%TO.P,U4,25,P1.01-LF*%
%TO.N,unconnected-(U4-P1.01-LF-Pad25)*%
X38816280Y-149326600D03*
%TO.P,U4,26,P1.02-LF*%
%TO.N,unconnected-(U4-P1.02-LF-Pad26)*%
X38816280Y-146786600D03*
%TO.P,U4,27,P1.07-LF*%
%TO.N,unconnected-(U4-P1.07-LF-Pad27)*%
X38816280Y-144246600D03*
D14*
%TO.P,U4,28,GND*%
%TO.N,GND*%
X11430000Y-152400000D03*
D10*
%TO.P,U4,29,BAT+*%
%TO.N,VBAT*%
X11430000Y-137160000D03*
%TD*%
D13*
%TO.P,TP1,1,1*%
%TO.N,VBAT*%
X272573750Y-144303750D03*
%TD*%
D15*
%TO.P,SW32,1,1*%
%TO.N,C1*%
X126920000Y-118170000D03*
%TO.P,SW32,2,2*%
%TO.N,Net-(D32-A)*%
X121920000Y-115970000D03*
%TD*%
%TO.P,SW6,1,1*%
%TO.N,C1*%
X192955127Y-141572405D03*
%TO.P,SW6,2,2*%
%TO.N,Net-(D6-A)*%
X187525000Y-142167149D03*
%TD*%
%TO.P,SW26,1,1*%
%TO.N,C6*%
X314880000Y-77530000D03*
%TO.P,SW26,2,2*%
%TO.N,Net-(D26-A)*%
X309880000Y-75330000D03*
%TD*%
%TO.P,SW28,1,1*%
%TO.N,C6*%
X314880000Y-118170000D03*
%TO.P,SW28,2,2*%
%TO.N,Net-(D28-A)*%
X309880000Y-115970000D03*
%TD*%
%TO.P,SW31,1,1*%
%TO.N,C1*%
X126920000Y-97850000D03*
%TO.P,SW31,2,2*%
%TO.N,Net-(D31-A)*%
X121920000Y-95650000D03*
%TD*%
%TO.P,SW49,1,1*%
%TO.N,C5*%
X45640000Y-57210000D03*
%TO.P,SW49,2,2*%
%TO.N,Net-(D49-A)*%
X40640000Y-55010000D03*
%TD*%
%TO.P,SW15,1,1*%
%TO.N,C3*%
X253920000Y-113090000D03*
%TO.P,SW15,2,2*%
%TO.N,Net-(D15-A)*%
X248920000Y-110890000D03*
%TD*%
%TO.P,SW22,1,1*%
%TO.N,C5*%
X294560000Y-77530000D03*
%TO.P,SW22,2,2*%
%TO.N,Net-(D22-A)*%
X289560000Y-75330000D03*
%TD*%
%TO.P,SW14,1,1*%
%TO.N,C3*%
X253920000Y-92770000D03*
%TO.P,SW14,2,2*%
%TO.N,Net-(D14-A)*%
X248920000Y-90570000D03*
%TD*%
%TO.P,SW29,1,1*%
%TO.N,C1*%
X126920000Y-57210000D03*
%TO.P,SW29,2,2*%
%TO.N,Net-(D29-A)*%
X121920000Y-55010000D03*
%TD*%
%TO.P,SW36,1,1*%
%TO.N,C2*%
X106600000Y-74990000D03*
%TO.P,SW36,2,2*%
%TO.N,Net-(D36-A)*%
X101600000Y-72790000D03*
%TD*%
%TO.P,SW11,1,1*%
%TO.N,C2*%
X223440000Y-138490000D03*
%TO.P,SW11,2,2*%
%TO.N,Net-(D11-A)*%
X218440000Y-136290000D03*
%TD*%
%TO.P,SW48,1,1*%
%TO.N,C4*%
X65960000Y-115630000D03*
%TO.P,SW48,2,2*%
%TO.N,Net-(D48-A)*%
X60960000Y-113430000D03*
%TD*%
%TO.P,SW3,1,1*%
%TO.N,C1*%
X213280000Y-97850000D03*
%TO.P,SW3,2,2*%
%TO.N,Net-(D3-A)*%
X208280000Y-95650000D03*
%TD*%
%TO.P,SW19,1,1*%
%TO.N,C4*%
X274240000Y-95310000D03*
%TO.P,SW19,2,2*%
%TO.N,Net-(D19-A)*%
X269240000Y-93110000D03*
%TD*%
%TO.P,SW12,1,1*%
%TO.N,C3*%
X253920000Y-52130000D03*
%TO.P,SW12,2,2*%
%TO.N,Net-(D12-A)*%
X248920000Y-49930000D03*
%TD*%
%TO.P,SW2,1,1*%
%TO.N,C1*%
X213280000Y-77530000D03*
%TO.P,SW2,2,2*%
%TO.N,Net-(D2-A)*%
X208280000Y-75330000D03*
%TD*%
%TO.P,SW33,1,1*%
%TO.N,C1*%
X143654873Y-130287595D03*
%TO.P,SW33,2,2*%
%TO.N,Net-(D33-A)*%
X146885000Y-134692851D03*
%TD*%
%TO.P,SW40,1,1*%
%TO.N,C3*%
X86280000Y-52130000D03*
%TO.P,SW40,2,2*%
%TO.N,Net-(D40-A)*%
X81280000Y-49930000D03*
%TD*%
%TO.P,SW42,1,1*%
%TO.N,C3*%
X86280000Y-92770000D03*
%TO.P,SW42,2,2*%
%TO.N,Net-(D42-A)*%
X81280000Y-90570000D03*
%TD*%
%TO.P,SW20,1,1*%
%TO.N,C4*%
X274240000Y-115630000D03*
%TO.P,SW20,2,2*%
%TO.N,Net-(D20-A)*%
X269240000Y-113430000D03*
%TD*%
%TO.P,SW24,1,1*%
%TO.N,C5*%
X294560000Y-118170000D03*
%TO.P,SW24,2,2*%
%TO.N,Net-(D24-A)*%
X289560000Y-115970000D03*
%TD*%
%TO.P,SW9,1,1*%
%TO.N,C2*%
X233600000Y-95310000D03*
%TO.P,SW9,2,2*%
%TO.N,Net-(D9-A)*%
X228600000Y-93110000D03*
%TD*%
%TO.P,SW44,1,1*%
%TO.N,C3*%
X96440000Y-138490000D03*
%TO.P,SW44,2,2*%
%TO.N,Net-(D44-A)*%
X91440000Y-136290000D03*
%TD*%
%TO.P,SW46,1,1*%
%TO.N,C4*%
X65960000Y-74990000D03*
%TO.P,SW46,2,2*%
%TO.N,Net-(D46-A)*%
X60960000Y-72790000D03*
%TD*%
%TO.P,SW39,1,1*%
%TO.N,C2*%
X119300000Y-138490000D03*
%TO.P,SW39,2,2*%
%TO.N,Net-(D39-A)*%
X114300000Y-136290000D03*
%TD*%
%TO.P,SW16,1,1*%
%TO.N,C3*%
X246300000Y-135950000D03*
%TO.P,SW16,2,2*%
%TO.N,Net-(D16-A)*%
X241300000Y-133750000D03*
%TD*%
%TO.P,SW7,1,1*%
%TO.N,C2*%
X233600000Y-54670000D03*
%TO.P,SW7,2,2*%
%TO.N,Net-(D7-A)*%
X228600000Y-52470000D03*
%TD*%
%TO.P,SW54,1,1*%
%TO.N,C6*%
X25320000Y-77530000D03*
%TO.P,SW54,2,2*%
%TO.N,Net-(D54-A)*%
X20320000Y-75330000D03*
%TD*%
%TO.P,SW18,1,1*%
%TO.N,C4*%
X274240000Y-74990000D03*
%TO.P,SW18,2,2*%
%TO.N,Net-(D18-A)*%
X269240000Y-72790000D03*
%TD*%
%TO.P,SW27,1,1*%
%TO.N,C6*%
X314880000Y-97850000D03*
%TO.P,SW27,2,2*%
%TO.N,Net-(D27-A)*%
X309880000Y-95650000D03*
%TD*%
%TO.P,SW41,1,1*%
%TO.N,C3*%
X86280000Y-72450000D03*
%TO.P,SW41,2,2*%
%TO.N,Net-(D41-A)*%
X81280000Y-70250000D03*
%TD*%
%TO.P,SW37,1,1*%
%TO.N,C2*%
X106600000Y-95310000D03*
%TO.P,SW37,2,2*%
%TO.N,Net-(D37-A)*%
X101600000Y-93110000D03*
%TD*%
%TO.P,SW55,1,1*%
%TO.N,C6*%
X25320000Y-97850000D03*
%TO.P,SW55,2,2*%
%TO.N,Net-(D55-A)*%
X20320000Y-95650000D03*
%TD*%
%TO.P,SW23,1,1*%
%TO.N,C5*%
X294560000Y-97850000D03*
%TO.P,SW23,2,2*%
%TO.N,Net-(D23-A)*%
X289560000Y-95650000D03*
%TD*%
%TO.P,SW13,1,1*%
%TO.N,C3*%
X253920000Y-72450000D03*
%TO.P,SW13,2,2*%
%TO.N,Net-(D13-A)*%
X248920000Y-70250000D03*
%TD*%
%TO.P,SW17,1,1*%
%TO.N,C4*%
X274240000Y-54670000D03*
%TO.P,SW17,2,2*%
%TO.N,Net-(D17-A)*%
X269240000Y-52470000D03*
%TD*%
%TO.P,SW1,1,1*%
%TO.N,C1*%
X213280000Y-57210000D03*
%TO.P,SW1,2,2*%
%TO.N,Net-(D1-A)*%
X208280000Y-55010000D03*
%TD*%
%TO.P,SW38,1,1*%
%TO.N,C2*%
X106600000Y-115630000D03*
%TO.P,SW38,2,2*%
%TO.N,Net-(D38-A)*%
X101600000Y-113430000D03*
%TD*%
%TO.P,SW45,1,1*%
%TO.N,C4*%
X65960000Y-54670000D03*
%TO.P,SW45,2,2*%
%TO.N,Net-(D45-A)*%
X60960000Y-52470000D03*
%TD*%
%TO.P,SW52,1,1*%
%TO.N,C5*%
X45640000Y-118170000D03*
%TO.P,SW52,2,2*%
%TO.N,Net-(D52-A)*%
X40640000Y-115970000D03*
%TD*%
%TO.P,SW43,1,1*%
%TO.N,C3*%
X86280000Y-113090000D03*
%TO.P,SW43,2,2*%
%TO.N,Net-(D43-A)*%
X81280000Y-110890000D03*
%TD*%
%TO.P,SW53,1,1*%
%TO.N,C6*%
X25320000Y-57210000D03*
%TO.P,SW53,2,2*%
%TO.N,Net-(D53-A)*%
X20320000Y-55010000D03*
%TD*%
%TO.P,SW25,1,1*%
%TO.N,C6*%
X314880000Y-57210000D03*
%TO.P,SW25,2,2*%
%TO.N,Net-(D25-A)*%
X309880000Y-55010000D03*
%TD*%
%TO.P,SW35,1,1*%
%TO.N,C2*%
X106600000Y-54670000D03*
%TO.P,SW35,2,2*%
%TO.N,Net-(D35-A)*%
X101600000Y-52470000D03*
%TD*%
%TO.P,SW21,1,1*%
%TO.N,C5*%
X294560000Y-57210000D03*
%TO.P,SW21,2,2*%
%TO.N,Net-(D21-A)*%
X289560000Y-55010000D03*
%TD*%
%TO.P,SW50,1,1*%
%TO.N,C5*%
X45640000Y-77530000D03*
%TO.P,SW50,2,2*%
%TO.N,Net-(D50-A)*%
X40640000Y-75330000D03*
%TD*%
%TO.P,SW5,1,1*%
%TO.N,C1*%
X182795127Y-123792405D03*
%TO.P,SW5,2,2*%
%TO.N,Net-(D5-A)*%
X177365000Y-124387149D03*
%TD*%
%TO.P,SW47,1,1*%
%TO.N,C4*%
X65960000Y-95310000D03*
%TO.P,SW47,2,2*%
%TO.N,Net-(D47-A)*%
X60960000Y-93110000D03*
%TD*%
%TO.P,SW56,1,1*%
%TO.N,C6*%
X25320000Y-118170000D03*
%TO.P,SW56,2,2*%
%TO.N,Net-(D56-A)*%
X20320000Y-115970000D03*
%TD*%
%TO.P,SW34,1,1*%
%TO.N,C1*%
X133494873Y-148067595D03*
%TO.P,SW34,2,2*%
%TO.N,Net-(D34-A)*%
X136725000Y-152472851D03*
%TD*%
%TO.P,SW8,1,1*%
%TO.N,C2*%
X233600000Y-74990000D03*
%TO.P,SW8,2,2*%
%TO.N,Net-(D8-A)*%
X228600000Y-72790000D03*
%TD*%
%TO.P,SW4,1,1*%
%TO.N,C1*%
X213280000Y-118170000D03*
%TO.P,SW4,2,2*%
%TO.N,Net-(D4-A)*%
X208280000Y-115970000D03*
%TD*%
%TO.P,SW51,1,1*%
%TO.N,C5*%
X45640000Y-97850000D03*
%TO.P,SW51,2,2*%
%TO.N,Net-(D51-A)*%
X40640000Y-95650000D03*
%TD*%
%TO.P,SW10,1,1*%
%TO.N,C2*%
X233600000Y-115630000D03*
%TO.P,SW10,2,2*%
%TO.N,Net-(D10-A)*%
X228600000Y-113430000D03*
%TD*%
%TO.P,SW30,1,1*%
%TO.N,C1*%
X126920000Y-77530000D03*
%TO.P,SW30,2,2*%
%TO.N,Net-(D30-A)*%
X121920000Y-75330000D03*
%TD*%
D16*
%TO.N,C1*%
X125270000Y-75880000D02*
X126920000Y-77530000D01*
X213280000Y-77530000D02*
X211630000Y-79180000D01*
X125270000Y-99500000D02*
X125270000Y-116520000D01*
X126920000Y-77530000D02*
X125270000Y-79180000D01*
X210820000Y-115710000D02*
X213280000Y-118170000D01*
X125270000Y-96200000D02*
X126920000Y-97850000D01*
X211630000Y-96200000D02*
X213280000Y-97850000D01*
X213280000Y-97850000D02*
X210820000Y-100310000D01*
X143654873Y-130287595D02*
X143654873Y-137907595D01*
X125270000Y-58860000D02*
X125270000Y-75880000D01*
X182795127Y-123792405D02*
X182795127Y-131412405D01*
X126920000Y-97850000D02*
X125270000Y-99500000D01*
X126920000Y-118170000D02*
X131537278Y-118170000D01*
X210820000Y-100310000D02*
X210820000Y-115710000D01*
X211630000Y-58860000D02*
X211630000Y-75880000D01*
X125270000Y-116520000D02*
X126920000Y-118170000D01*
X143654873Y-137907595D02*
X133494873Y-148067595D01*
X125270000Y-79180000D02*
X125270000Y-96200000D01*
X211630000Y-75880000D02*
X213280000Y-77530000D01*
X213280000Y-57210000D02*
X211630000Y-58860000D01*
X131537278Y-118170000D02*
X143654873Y-130287595D01*
X126920000Y-57210000D02*
X125270000Y-58860000D01*
X182795127Y-131412405D02*
X192955127Y-141572405D01*
X211630000Y-79180000D02*
X211630000Y-96200000D01*
X188417532Y-118170000D02*
X182795127Y-123792405D01*
X213280000Y-118170000D02*
X188417532Y-118170000D01*
%TO.N,C2*%
X233600000Y-117963452D02*
X223440000Y-128123452D01*
X106600000Y-54670000D02*
X109220000Y-57290000D01*
X106600000Y-115630000D02*
X119300000Y-128330000D01*
X106600000Y-95310000D02*
X104950000Y-96960000D01*
X106600000Y-74990000D02*
X104140000Y-77450000D01*
X233600000Y-54670000D02*
X231950000Y-56320000D01*
X109220000Y-72370000D02*
X106600000Y-74990000D01*
X104140000Y-77450000D02*
X104140000Y-92850000D01*
X231140000Y-92850000D02*
X233600000Y-95310000D01*
X231950000Y-113980000D02*
X233600000Y-115630000D01*
X104140000Y-92850000D02*
X106600000Y-95310000D01*
X223440000Y-128123452D02*
X223440000Y-138490000D01*
X104950000Y-96960000D02*
X104950000Y-113980000D01*
X231950000Y-56320000D02*
X231950000Y-73340000D01*
X104950000Y-113980000D02*
X106600000Y-115630000D01*
X119300000Y-128330000D02*
X119300000Y-138490000D01*
X231950000Y-73340000D02*
X233600000Y-74990000D01*
X233600000Y-115630000D02*
X233600000Y-117963452D01*
X231950000Y-96960000D02*
X231950000Y-113980000D01*
X233600000Y-95310000D02*
X231950000Y-96960000D01*
X109220000Y-57290000D02*
X109220000Y-72370000D01*
X233600000Y-74990000D02*
X231140000Y-77450000D01*
X231140000Y-77450000D02*
X231140000Y-92850000D01*
%TO.N,GND*%
X60960000Y-152400000D02*
X59759000Y-153601000D01*
X311150000Y-137160000D02*
X313690000Y-137160000D01*
X276827400Y-139032400D02*
X309277600Y-139032400D01*
X22791000Y-153601000D02*
X21590000Y-152400000D01*
X274955000Y-137160000D02*
X276827400Y-139032400D01*
X309277600Y-139032400D02*
X311150000Y-137160000D01*
X59759000Y-153601000D02*
X22791000Y-153601000D01*
%TO.N,C3*%
X86280000Y-52130000D02*
X84630000Y-53780000D01*
X252270000Y-74100000D02*
X252270000Y-91120000D01*
X252270000Y-94420000D02*
X252270000Y-111440000D01*
X86280000Y-72450000D02*
X84630000Y-74100000D01*
X253920000Y-52130000D02*
X252270000Y-53780000D01*
X96440000Y-123250000D02*
X96440000Y-138490000D01*
X84630000Y-53780000D02*
X84630000Y-70800000D01*
X252270000Y-70800000D02*
X253920000Y-72450000D01*
X84630000Y-91120000D02*
X86280000Y-92770000D01*
X252270000Y-91120000D02*
X253920000Y-92770000D01*
X253920000Y-72450000D02*
X252270000Y-74100000D01*
X86280000Y-92770000D02*
X84630000Y-94420000D01*
X84630000Y-74100000D02*
X84630000Y-91120000D01*
X250971000Y-116039000D02*
X250971000Y-131279000D01*
X84630000Y-94420000D02*
X84630000Y-111440000D01*
X252270000Y-53780000D02*
X252270000Y-70800000D01*
X253920000Y-113090000D02*
X250971000Y-116039000D01*
X84630000Y-70800000D02*
X86280000Y-72450000D01*
X253920000Y-92770000D02*
X252270000Y-94420000D01*
X252270000Y-111440000D02*
X253920000Y-113090000D01*
X86280000Y-113090000D02*
X96440000Y-123250000D01*
X250971000Y-131279000D02*
X246300000Y-135950000D01*
X84630000Y-111440000D02*
X86280000Y-113090000D01*
%TO.N,C4*%
X65960000Y-95310000D02*
X64310000Y-96960000D01*
X64310000Y-93660000D02*
X65960000Y-95310000D01*
X65960000Y-54670000D02*
X64310000Y-56320000D01*
X272590000Y-76640000D02*
X272590000Y-93660000D01*
X274240000Y-95310000D02*
X272590000Y-96960000D01*
X274240000Y-54670000D02*
X272590000Y-56320000D01*
X65960000Y-74990000D02*
X64310000Y-76640000D01*
X64310000Y-56320000D02*
X64310000Y-73340000D01*
X274240000Y-74990000D02*
X272590000Y-76640000D01*
X64310000Y-76640000D02*
X64310000Y-93660000D01*
X272590000Y-93660000D02*
X274240000Y-95310000D01*
X64310000Y-96960000D02*
X64310000Y-113980000D01*
X272590000Y-56320000D02*
X272590000Y-73340000D01*
X272590000Y-96960000D02*
X272590000Y-113980000D01*
X64310000Y-113980000D02*
X65960000Y-115630000D01*
X272590000Y-73340000D02*
X274240000Y-74990000D01*
X272590000Y-113980000D02*
X274240000Y-115630000D01*
X64310000Y-73340000D02*
X65960000Y-74990000D01*
%TO.N,C5*%
X43990000Y-75880000D02*
X45640000Y-77530000D01*
X45640000Y-57210000D02*
X43990000Y-58860000D01*
X43990000Y-58860000D02*
X43990000Y-75880000D01*
X45640000Y-77530000D02*
X43990000Y-79180000D01*
X43990000Y-96200000D02*
X45640000Y-97850000D01*
X43990000Y-79180000D02*
X43990000Y-96200000D01*
X294560000Y-77530000D02*
X292910000Y-79180000D01*
X292910000Y-99500000D02*
X292910000Y-116520000D01*
X43180000Y-100310000D02*
X43180000Y-115710000D01*
X294560000Y-57210000D02*
X292910000Y-58860000D01*
X292910000Y-116520000D02*
X294560000Y-118170000D01*
X45640000Y-97850000D02*
X43180000Y-100310000D01*
X43180000Y-115710000D02*
X45640000Y-118170000D01*
X292910000Y-96200000D02*
X294560000Y-97850000D01*
X292910000Y-58860000D02*
X292910000Y-75880000D01*
X292910000Y-75880000D02*
X294560000Y-77530000D01*
X294560000Y-97850000D02*
X292910000Y-99500000D01*
X292910000Y-79180000D02*
X292910000Y-96200000D01*
%TO.N,VBAT*%
X19050000Y-142240000D02*
X13970000Y-137160000D01*
X279469000Y-151199000D02*
X317569000Y-151199000D01*
X60960000Y-142240000D02*
X19050000Y-142240000D01*
X272573750Y-144303750D02*
X279469000Y-151199000D01*
X318770000Y-152400000D02*
X321310000Y-152400000D01*
X317569000Y-151199000D02*
X318770000Y-152400000D01*
X63500000Y-144780000D02*
X60960000Y-142240000D01*
%TO.N,C6*%
X313230000Y-116520000D02*
X314880000Y-118170000D01*
X313230000Y-99500000D02*
X313230000Y-116520000D01*
X23670000Y-96200000D02*
X25320000Y-97850000D01*
X23670000Y-116520000D02*
X25320000Y-118170000D01*
X313230000Y-96200000D02*
X314880000Y-97850000D01*
X25320000Y-77530000D02*
X23670000Y-79180000D01*
X313230000Y-75880000D02*
X314880000Y-77530000D01*
X313230000Y-58860000D02*
X313230000Y-75880000D01*
X314880000Y-57210000D02*
X313230000Y-58860000D01*
X314880000Y-77530000D02*
X313230000Y-79180000D01*
X23670000Y-79180000D02*
X23670000Y-96200000D01*
X25320000Y-97850000D02*
X23670000Y-99500000D01*
X23670000Y-99500000D02*
X23670000Y-116520000D01*
X313230000Y-79180000D02*
X313230000Y-96200000D01*
X314880000Y-97850000D02*
X313230000Y-99500000D01*
X23670000Y-58860000D02*
X23670000Y-75880000D01*
X23670000Y-75880000D02*
X25320000Y-77530000D01*
X25320000Y-57210000D02*
X23670000Y-58860000D01*
%TD*%
M02*
