%TF.GenerationSoftware,KiCad,Pcbnew,9.0.5*%
%TF.CreationDate,2026-06-21T18:39:48+05:30*%
%TF.ProjectId,Split_keyboard,53706c69-745f-46b6-9579-626f6172642e,rev?*%
%TF.SameCoordinates,Original*%
%TF.FileFunction,Legend,Top*%
%TF.FilePolarity,Positive*%
%FSLAX46Y46*%
G04 Gerber Fmt 4.6, Leading zero omitted, Abs format (unit mm)*
G04 Created by KiCad (PCBNEW 9.0.5) date 2026-06-21 18:39:48*
%MOMM*%
%LPD*%
G01*
G04 APERTURE LIST*
%ADD10C,0.150000*%
%ADD11C,0.120000*%
G04 APERTURE END LIST*
D10*
X70358095Y-103984819D02*
X70358095Y-102984819D01*
X70358095Y-103461009D02*
X70929523Y-103461009D01*
X70929523Y-103984819D02*
X70929523Y-102984819D01*
X71548571Y-103413390D02*
X71453333Y-103365771D01*
X71453333Y-103365771D02*
X71405714Y-103318152D01*
X71405714Y-103318152D02*
X71358095Y-103222914D01*
X71358095Y-103222914D02*
X71358095Y-103175295D01*
X71358095Y-103175295D02*
X71405714Y-103080057D01*
X71405714Y-103080057D02*
X71453333Y-103032438D01*
X71453333Y-103032438D02*
X71548571Y-102984819D01*
X71548571Y-102984819D02*
X71739047Y-102984819D01*
X71739047Y-102984819D02*
X71834285Y-103032438D01*
X71834285Y-103032438D02*
X71881904Y-103080057D01*
X71881904Y-103080057D02*
X71929523Y-103175295D01*
X71929523Y-103175295D02*
X71929523Y-103222914D01*
X71929523Y-103222914D02*
X71881904Y-103318152D01*
X71881904Y-103318152D02*
X71834285Y-103365771D01*
X71834285Y-103365771D02*
X71739047Y-103413390D01*
X71739047Y-103413390D02*
X71548571Y-103413390D01*
X71548571Y-103413390D02*
X71453333Y-103461009D01*
X71453333Y-103461009D02*
X71405714Y-103508628D01*
X71405714Y-103508628D02*
X71358095Y-103603866D01*
X71358095Y-103603866D02*
X71358095Y-103794342D01*
X71358095Y-103794342D02*
X71405714Y-103889580D01*
X71405714Y-103889580D02*
X71453333Y-103937200D01*
X71453333Y-103937200D02*
X71548571Y-103984819D01*
X71548571Y-103984819D02*
X71739047Y-103984819D01*
X71739047Y-103984819D02*
X71834285Y-103937200D01*
X71834285Y-103937200D02*
X71881904Y-103889580D01*
X71881904Y-103889580D02*
X71929523Y-103794342D01*
X71929523Y-103794342D02*
X71929523Y-103603866D01*
X71929523Y-103603866D02*
X71881904Y-103508628D01*
X71881904Y-103508628D02*
X71834285Y-103461009D01*
X71834285Y-103461009D02*
X71739047Y-103413390D01*
X288014819Y-137500588D02*
X288824342Y-137500588D01*
X288824342Y-137500588D02*
X288919580Y-137452969D01*
X288919580Y-137452969D02*
X288967200Y-137405350D01*
X288967200Y-137405350D02*
X289014819Y-137310112D01*
X289014819Y-137310112D02*
X289014819Y-137119636D01*
X289014819Y-137119636D02*
X288967200Y-137024398D01*
X288967200Y-137024398D02*
X288919580Y-136976779D01*
X288919580Y-136976779D02*
X288824342Y-136929160D01*
X288824342Y-136929160D02*
X288014819Y-136929160D01*
X288014819Y-136548207D02*
X288014819Y-135929160D01*
X288014819Y-135929160D02*
X288395771Y-136262493D01*
X288395771Y-136262493D02*
X288395771Y-136119636D01*
X288395771Y-136119636D02*
X288443390Y-136024398D01*
X288443390Y-136024398D02*
X288491009Y-135976779D01*
X288491009Y-135976779D02*
X288586247Y-135929160D01*
X288586247Y-135929160D02*
X288824342Y-135929160D01*
X288824342Y-135929160D02*
X288919580Y-135976779D01*
X288919580Y-135976779D02*
X288967200Y-136024398D01*
X288967200Y-136024398D02*
X289014819Y-136119636D01*
X289014819Y-136119636D02*
X289014819Y-136405350D01*
X289014819Y-136405350D02*
X288967200Y-136500588D01*
X288967200Y-136500588D02*
X288919580Y-136548207D01*
X322130180Y-143518095D02*
X321320657Y-143518095D01*
X321320657Y-143518095D02*
X321225419Y-143565714D01*
X321225419Y-143565714D02*
X321177800Y-143613333D01*
X321177800Y-143613333D02*
X321130180Y-143708571D01*
X321130180Y-143708571D02*
X321130180Y-143899047D01*
X321130180Y-143899047D02*
X321177800Y-143994285D01*
X321177800Y-143994285D02*
X321225419Y-144041904D01*
X321225419Y-144041904D02*
X321320657Y-144089523D01*
X321320657Y-144089523D02*
X322130180Y-144089523D01*
X321177800Y-144518095D02*
X321130180Y-144660952D01*
X321130180Y-144660952D02*
X321130180Y-144899047D01*
X321130180Y-144899047D02*
X321177800Y-144994285D01*
X321177800Y-144994285D02*
X321225419Y-145041904D01*
X321225419Y-145041904D02*
X321320657Y-145089523D01*
X321320657Y-145089523D02*
X321415895Y-145089523D01*
X321415895Y-145089523D02*
X321511133Y-145041904D01*
X321511133Y-145041904D02*
X321558752Y-144994285D01*
X321558752Y-144994285D02*
X321606371Y-144899047D01*
X321606371Y-144899047D02*
X321653990Y-144708571D01*
X321653990Y-144708571D02*
X321701609Y-144613333D01*
X321701609Y-144613333D02*
X321749228Y-144565714D01*
X321749228Y-144565714D02*
X321844466Y-144518095D01*
X321844466Y-144518095D02*
X321939704Y-144518095D01*
X321939704Y-144518095D02*
X322034942Y-144565714D01*
X322034942Y-144565714D02*
X322082561Y-144613333D01*
X322082561Y-144613333D02*
X322130180Y-144708571D01*
X322130180Y-144708571D02*
X322130180Y-144946666D01*
X322130180Y-144946666D02*
X322082561Y-145089523D01*
X321653990Y-145851428D02*
X321606371Y-145994285D01*
X321606371Y-145994285D02*
X321558752Y-146041904D01*
X321558752Y-146041904D02*
X321463514Y-146089523D01*
X321463514Y-146089523D02*
X321320657Y-146089523D01*
X321320657Y-146089523D02*
X321225419Y-146041904D01*
X321225419Y-146041904D02*
X321177800Y-145994285D01*
X321177800Y-145994285D02*
X321130180Y-145899047D01*
X321130180Y-145899047D02*
X321130180Y-145518095D01*
X321130180Y-145518095D02*
X322130180Y-145518095D01*
X322130180Y-145518095D02*
X322130180Y-145851428D01*
X322130180Y-145851428D02*
X322082561Y-145946666D01*
X322082561Y-145946666D02*
X322034942Y-145994285D01*
X322034942Y-145994285D02*
X321939704Y-146041904D01*
X321939704Y-146041904D02*
X321844466Y-146041904D01*
X321844466Y-146041904D02*
X321749228Y-145994285D01*
X321749228Y-145994285D02*
X321701609Y-145946666D01*
X321701609Y-145946666D02*
X321653990Y-145851428D01*
X321653990Y-145851428D02*
X321653990Y-145518095D01*
X320396847Y-142160952D02*
X320396847Y-142541904D01*
X320730180Y-142303809D02*
X319873038Y-142303809D01*
X319873038Y-142303809D02*
X319777800Y-142351428D01*
X319777800Y-142351428D02*
X319730180Y-142446666D01*
X319730180Y-142446666D02*
X319730180Y-142541904D01*
X319730180Y-143018095D02*
X319777800Y-142922857D01*
X319777800Y-142922857D02*
X319825419Y-142875238D01*
X319825419Y-142875238D02*
X319920657Y-142827619D01*
X319920657Y-142827619D02*
X320206371Y-142827619D01*
X320206371Y-142827619D02*
X320301609Y-142875238D01*
X320301609Y-142875238D02*
X320349228Y-142922857D01*
X320349228Y-142922857D02*
X320396847Y-143018095D01*
X320396847Y-143018095D02*
X320396847Y-143160952D01*
X320396847Y-143160952D02*
X320349228Y-143256190D01*
X320349228Y-143256190D02*
X320301609Y-143303809D01*
X320301609Y-143303809D02*
X320206371Y-143351428D01*
X320206371Y-143351428D02*
X319920657Y-143351428D01*
X319920657Y-143351428D02*
X319825419Y-143303809D01*
X319825419Y-143303809D02*
X319777800Y-143256190D01*
X319777800Y-143256190D02*
X319730180Y-143160952D01*
X319730180Y-143160952D02*
X319730180Y-143018095D01*
X320396847Y-143780000D02*
X319396847Y-143780000D01*
X320349228Y-143780000D02*
X320396847Y-143875238D01*
X320396847Y-143875238D02*
X320396847Y-144065714D01*
X320396847Y-144065714D02*
X320349228Y-144160952D01*
X320349228Y-144160952D02*
X320301609Y-144208571D01*
X320301609Y-144208571D02*
X320206371Y-144256190D01*
X320206371Y-144256190D02*
X319920657Y-144256190D01*
X319920657Y-144256190D02*
X319825419Y-144208571D01*
X319825419Y-144208571D02*
X319777800Y-144160952D01*
X319777800Y-144160952D02*
X319730180Y-144065714D01*
X319730180Y-144065714D02*
X319730180Y-143875238D01*
X319730180Y-143875238D02*
X319777800Y-143780000D01*
X319777800Y-144637143D02*
X319730180Y-144732381D01*
X319730180Y-144732381D02*
X319730180Y-144922857D01*
X319730180Y-144922857D02*
X319777800Y-145018095D01*
X319777800Y-145018095D02*
X319873038Y-145065714D01*
X319873038Y-145065714D02*
X319920657Y-145065714D01*
X319920657Y-145065714D02*
X320015895Y-145018095D01*
X320015895Y-145018095D02*
X320063514Y-144922857D01*
X320063514Y-144922857D02*
X320063514Y-144780000D01*
X320063514Y-144780000D02*
X320111133Y-144684762D01*
X320111133Y-144684762D02*
X320206371Y-144637143D01*
X320206371Y-144637143D02*
X320253990Y-144637143D01*
X320253990Y-144637143D02*
X320349228Y-144684762D01*
X320349228Y-144684762D02*
X320396847Y-144780000D01*
X320396847Y-144780000D02*
X320396847Y-144922857D01*
X320396847Y-144922857D02*
X320349228Y-145018095D01*
X319730180Y-145494286D02*
X320396847Y-145494286D01*
X320730180Y-145494286D02*
X320682561Y-145446667D01*
X320682561Y-145446667D02*
X320634942Y-145494286D01*
X320634942Y-145494286D02*
X320682561Y-145541905D01*
X320682561Y-145541905D02*
X320730180Y-145494286D01*
X320730180Y-145494286D02*
X320634942Y-145494286D01*
X319730180Y-146399047D02*
X320730180Y-146399047D01*
X319777800Y-146399047D02*
X319730180Y-146303809D01*
X319730180Y-146303809D02*
X319730180Y-146113333D01*
X319730180Y-146113333D02*
X319777800Y-146018095D01*
X319777800Y-146018095D02*
X319825419Y-145970476D01*
X319825419Y-145970476D02*
X319920657Y-145922857D01*
X319920657Y-145922857D02*
X320206371Y-145922857D01*
X320206371Y-145922857D02*
X320301609Y-145970476D01*
X320301609Y-145970476D02*
X320349228Y-146018095D01*
X320349228Y-146018095D02*
X320396847Y-146113333D01*
X320396847Y-146113333D02*
X320396847Y-146303809D01*
X320396847Y-146303809D02*
X320349228Y-146399047D01*
X319777800Y-147256190D02*
X319730180Y-147160952D01*
X319730180Y-147160952D02*
X319730180Y-146970476D01*
X319730180Y-146970476D02*
X319777800Y-146875238D01*
X319777800Y-146875238D02*
X319873038Y-146827619D01*
X319873038Y-146827619D02*
X320253990Y-146827619D01*
X320253990Y-146827619D02*
X320349228Y-146875238D01*
X320349228Y-146875238D02*
X320396847Y-146970476D01*
X320396847Y-146970476D02*
X320396847Y-147160952D01*
X320396847Y-147160952D02*
X320349228Y-147256190D01*
X320349228Y-147256190D02*
X320253990Y-147303809D01*
X320253990Y-147303809D02*
X320158752Y-147303809D01*
X320158752Y-147303809D02*
X320063514Y-146827619D01*
X319122319Y-138779285D02*
X319122319Y-139350713D01*
X319122319Y-139064999D02*
X318122319Y-139064999D01*
X318122319Y-139064999D02*
X318265176Y-139160237D01*
X318265176Y-139160237D02*
X318360414Y-139255475D01*
X318360414Y-139255475D02*
X318408033Y-139350713D01*
X59698095Y-153852819D02*
X60269523Y-153852819D01*
X59983809Y-154852819D02*
X59983809Y-153852819D01*
X60602857Y-154852819D02*
X60602857Y-153852819D01*
X60602857Y-153852819D02*
X60983809Y-153852819D01*
X60983809Y-153852819D02*
X61079047Y-153900438D01*
X61079047Y-153900438D02*
X61126666Y-153948057D01*
X61126666Y-153948057D02*
X61174285Y-154043295D01*
X61174285Y-154043295D02*
X61174285Y-154186152D01*
X61174285Y-154186152D02*
X61126666Y-154281390D01*
X61126666Y-154281390D02*
X61079047Y-154329009D01*
X61079047Y-154329009D02*
X60983809Y-154376628D01*
X60983809Y-154376628D02*
X60602857Y-154376628D01*
X62031428Y-154186152D02*
X62031428Y-154852819D01*
X61793333Y-153805200D02*
X61555238Y-154519485D01*
X61555238Y-154519485D02*
X62174285Y-154519485D01*
X217201905Y-106524819D02*
X217201905Y-105524819D01*
X217201905Y-106001009D02*
X217773333Y-106001009D01*
X217773333Y-106524819D02*
X217773333Y-105524819D01*
X218773333Y-106524819D02*
X218201905Y-106524819D01*
X218487619Y-106524819D02*
X218487619Y-105524819D01*
X218487619Y-105524819D02*
X218392381Y-105667676D01*
X218392381Y-105667676D02*
X218297143Y-105762914D01*
X218297143Y-105762914D02*
X218201905Y-105810533D01*
X219725714Y-106524819D02*
X219154286Y-106524819D01*
X219440000Y-106524819D02*
X219440000Y-105524819D01*
X219440000Y-105524819D02*
X219344762Y-105667676D01*
X219344762Y-105667676D02*
X219249524Y-105762914D01*
X219249524Y-105762914D02*
X219154286Y-105810533D01*
X298958095Y-68424819D02*
X298958095Y-67424819D01*
X298958095Y-67901009D02*
X299529523Y-67901009D01*
X299529523Y-68424819D02*
X299529523Y-67424819D01*
X300529523Y-68424819D02*
X299958095Y-68424819D01*
X300243809Y-68424819D02*
X300243809Y-67424819D01*
X300243809Y-67424819D02*
X300148571Y-67567676D01*
X300148571Y-67567676D02*
X300053333Y-67662914D01*
X300053333Y-67662914D02*
X299958095Y-67710533D01*
X274973095Y-138814819D02*
X275544523Y-138814819D01*
X275258809Y-139814819D02*
X275258809Y-138814819D01*
X275877857Y-139814819D02*
X275877857Y-138814819D01*
X275877857Y-138814819D02*
X276258809Y-138814819D01*
X276258809Y-138814819D02*
X276354047Y-138862438D01*
X276354047Y-138862438D02*
X276401666Y-138910057D01*
X276401666Y-138910057D02*
X276449285Y-139005295D01*
X276449285Y-139005295D02*
X276449285Y-139148152D01*
X276449285Y-139148152D02*
X276401666Y-139243390D01*
X276401666Y-139243390D02*
X276354047Y-139291009D01*
X276354047Y-139291009D02*
X276258809Y-139338628D01*
X276258809Y-139338628D02*
X275877857Y-139338628D01*
X276830238Y-138910057D02*
X276877857Y-138862438D01*
X276877857Y-138862438D02*
X276973095Y-138814819D01*
X276973095Y-138814819D02*
X277211190Y-138814819D01*
X277211190Y-138814819D02*
X277306428Y-138862438D01*
X277306428Y-138862438D02*
X277354047Y-138910057D01*
X277354047Y-138910057D02*
X277401666Y-139005295D01*
X277401666Y-139005295D02*
X277401666Y-139100533D01*
X277401666Y-139100533D02*
X277354047Y-139243390D01*
X277354047Y-139243390D02*
X276782619Y-139814819D01*
X276782619Y-139814819D02*
X277401666Y-139814819D01*
X29718095Y-106524819D02*
X29718095Y-105524819D01*
X29718095Y-106001009D02*
X30289523Y-106001009D01*
X30289523Y-106524819D02*
X30289523Y-105524819D01*
X31194285Y-105858152D02*
X31194285Y-106524819D01*
X30956190Y-105477200D02*
X30718095Y-106191485D01*
X30718095Y-106191485D02*
X31337142Y-106191485D01*
X62238095Y-146232819D02*
X62809523Y-146232819D01*
X62523809Y-147232819D02*
X62523809Y-146232819D01*
X63142857Y-147232819D02*
X63142857Y-146232819D01*
X63142857Y-146232819D02*
X63523809Y-146232819D01*
X63523809Y-146232819D02*
X63619047Y-146280438D01*
X63619047Y-146280438D02*
X63666666Y-146328057D01*
X63666666Y-146328057D02*
X63714285Y-146423295D01*
X63714285Y-146423295D02*
X63714285Y-146566152D01*
X63714285Y-146566152D02*
X63666666Y-146661390D01*
X63666666Y-146661390D02*
X63619047Y-146709009D01*
X63619047Y-146709009D02*
X63523809Y-146756628D01*
X63523809Y-146756628D02*
X63142857Y-146756628D01*
X64047619Y-146232819D02*
X64666666Y-146232819D01*
X64666666Y-146232819D02*
X64333333Y-146613771D01*
X64333333Y-146613771D02*
X64476190Y-146613771D01*
X64476190Y-146613771D02*
X64571428Y-146661390D01*
X64571428Y-146661390D02*
X64619047Y-146709009D01*
X64619047Y-146709009D02*
X64666666Y-146804247D01*
X64666666Y-146804247D02*
X64666666Y-147042342D01*
X64666666Y-147042342D02*
X64619047Y-147137580D01*
X64619047Y-147137580D02*
X64571428Y-147185200D01*
X64571428Y-147185200D02*
X64476190Y-147232819D01*
X64476190Y-147232819D02*
X64190476Y-147232819D01*
X64190476Y-147232819D02*
X64095238Y-147185200D01*
X64095238Y-147185200D02*
X64047619Y-147137580D01*
X29718095Y-68424819D02*
X29718095Y-67424819D01*
X29718095Y-67901009D02*
X30289523Y-67901009D01*
X30289523Y-68424819D02*
X30289523Y-67424819D01*
X30718095Y-67520057D02*
X30765714Y-67472438D01*
X30765714Y-67472438D02*
X30860952Y-67424819D01*
X30860952Y-67424819D02*
X31099047Y-67424819D01*
X31099047Y-67424819D02*
X31194285Y-67472438D01*
X31194285Y-67472438D02*
X31241904Y-67520057D01*
X31241904Y-67520057D02*
X31289523Y-67615295D01*
X31289523Y-67615295D02*
X31289523Y-67710533D01*
X31289523Y-67710533D02*
X31241904Y-67853390D01*
X31241904Y-67853390D02*
X30670476Y-68424819D01*
X30670476Y-68424819D02*
X31289523Y-68424819D01*
X258318095Y-65884819D02*
X258318095Y-64884819D01*
X258318095Y-65361009D02*
X258889523Y-65361009D01*
X258889523Y-65884819D02*
X258889523Y-64884819D01*
X259841904Y-64884819D02*
X259365714Y-64884819D01*
X259365714Y-64884819D02*
X259318095Y-65361009D01*
X259318095Y-65361009D02*
X259365714Y-65313390D01*
X259365714Y-65313390D02*
X259460952Y-65265771D01*
X259460952Y-65265771D02*
X259699047Y-65265771D01*
X259699047Y-65265771D02*
X259794285Y-65313390D01*
X259794285Y-65313390D02*
X259841904Y-65361009D01*
X259841904Y-65361009D02*
X259889523Y-65456247D01*
X259889523Y-65456247D02*
X259889523Y-65694342D01*
X259889523Y-65694342D02*
X259841904Y-65789580D01*
X259841904Y-65789580D02*
X259794285Y-65837200D01*
X259794285Y-65837200D02*
X259699047Y-65884819D01*
X259699047Y-65884819D02*
X259460952Y-65884819D01*
X259460952Y-65884819D02*
X259365714Y-65837200D01*
X259365714Y-65837200D02*
X259318095Y-65789580D01*
X298958095Y-109064819D02*
X298958095Y-108064819D01*
X298958095Y-108541009D02*
X299529523Y-108541009D01*
X299529523Y-109064819D02*
X299529523Y-108064819D01*
X299910476Y-108064819D02*
X300529523Y-108064819D01*
X300529523Y-108064819D02*
X300196190Y-108445771D01*
X300196190Y-108445771D02*
X300339047Y-108445771D01*
X300339047Y-108445771D02*
X300434285Y-108493390D01*
X300434285Y-108493390D02*
X300481904Y-108541009D01*
X300481904Y-108541009D02*
X300529523Y-108636247D01*
X300529523Y-108636247D02*
X300529523Y-108874342D01*
X300529523Y-108874342D02*
X300481904Y-108969580D01*
X300481904Y-108969580D02*
X300434285Y-109017200D01*
X300434285Y-109017200D02*
X300339047Y-109064819D01*
X300339047Y-109064819D02*
X300053333Y-109064819D01*
X300053333Y-109064819D02*
X299958095Y-109017200D01*
X299958095Y-109017200D02*
X299910476Y-108969580D01*
X70358095Y-65884819D02*
X70358095Y-64884819D01*
X70358095Y-65361009D02*
X70929523Y-65361009D01*
X70929523Y-65884819D02*
X70929523Y-64884819D01*
X71834285Y-64884819D02*
X71643809Y-64884819D01*
X71643809Y-64884819D02*
X71548571Y-64932438D01*
X71548571Y-64932438D02*
X71500952Y-64980057D01*
X71500952Y-64980057D02*
X71405714Y-65122914D01*
X71405714Y-65122914D02*
X71358095Y-65313390D01*
X71358095Y-65313390D02*
X71358095Y-65694342D01*
X71358095Y-65694342D02*
X71405714Y-65789580D01*
X71405714Y-65789580D02*
X71453333Y-65837200D01*
X71453333Y-65837200D02*
X71548571Y-65884819D01*
X71548571Y-65884819D02*
X71739047Y-65884819D01*
X71739047Y-65884819D02*
X71834285Y-65837200D01*
X71834285Y-65837200D02*
X71881904Y-65789580D01*
X71881904Y-65789580D02*
X71929523Y-65694342D01*
X71929523Y-65694342D02*
X71929523Y-65456247D01*
X71929523Y-65456247D02*
X71881904Y-65361009D01*
X71881904Y-65361009D02*
X71834285Y-65313390D01*
X71834285Y-65313390D02*
X71739047Y-65265771D01*
X71739047Y-65265771D02*
X71548571Y-65265771D01*
X71548571Y-65265771D02*
X71453333Y-65313390D01*
X71453333Y-65313390D02*
X71405714Y-65361009D01*
X71405714Y-65361009D02*
X71358095Y-65456247D01*
X43634819Y-153583220D02*
X44444342Y-153583220D01*
X44444342Y-153583220D02*
X44539580Y-153535601D01*
X44539580Y-153535601D02*
X44587200Y-153487982D01*
X44587200Y-153487982D02*
X44634819Y-153392744D01*
X44634819Y-153392744D02*
X44634819Y-153202268D01*
X44634819Y-153202268D02*
X44587200Y-153107030D01*
X44587200Y-153107030D02*
X44539580Y-153059411D01*
X44539580Y-153059411D02*
X44444342Y-153011792D01*
X44444342Y-153011792D02*
X43634819Y-153011792D01*
X43968152Y-152107030D02*
X44634819Y-152107030D01*
X43587200Y-152345125D02*
X44301485Y-152583220D01*
X44301485Y-152583220D02*
X44301485Y-151964173D01*
X12343152Y-147399047D02*
X12343152Y-147018095D01*
X12009819Y-147256190D02*
X12866961Y-147256190D01*
X12866961Y-147256190D02*
X12962200Y-147208571D01*
X12962200Y-147208571D02*
X13009819Y-147113333D01*
X13009819Y-147113333D02*
X13009819Y-147018095D01*
X13009819Y-146541904D02*
X12962200Y-146637142D01*
X12962200Y-146637142D02*
X12914580Y-146684761D01*
X12914580Y-146684761D02*
X12819342Y-146732380D01*
X12819342Y-146732380D02*
X12533628Y-146732380D01*
X12533628Y-146732380D02*
X12438390Y-146684761D01*
X12438390Y-146684761D02*
X12390771Y-146637142D01*
X12390771Y-146637142D02*
X12343152Y-146541904D01*
X12343152Y-146541904D02*
X12343152Y-146399047D01*
X12343152Y-146399047D02*
X12390771Y-146303809D01*
X12390771Y-146303809D02*
X12438390Y-146256190D01*
X12438390Y-146256190D02*
X12533628Y-146208571D01*
X12533628Y-146208571D02*
X12819342Y-146208571D01*
X12819342Y-146208571D02*
X12914580Y-146256190D01*
X12914580Y-146256190D02*
X12962200Y-146303809D01*
X12962200Y-146303809D02*
X13009819Y-146399047D01*
X13009819Y-146399047D02*
X13009819Y-146541904D01*
X12343152Y-145779999D02*
X13343152Y-145779999D01*
X12390771Y-145779999D02*
X12343152Y-145684761D01*
X12343152Y-145684761D02*
X12343152Y-145494285D01*
X12343152Y-145494285D02*
X12390771Y-145399047D01*
X12390771Y-145399047D02*
X12438390Y-145351428D01*
X12438390Y-145351428D02*
X12533628Y-145303809D01*
X12533628Y-145303809D02*
X12819342Y-145303809D01*
X12819342Y-145303809D02*
X12914580Y-145351428D01*
X12914580Y-145351428D02*
X12962200Y-145399047D01*
X12962200Y-145399047D02*
X13009819Y-145494285D01*
X13009819Y-145494285D02*
X13009819Y-145684761D01*
X13009819Y-145684761D02*
X12962200Y-145779999D01*
X12962200Y-144922856D02*
X13009819Y-144827618D01*
X13009819Y-144827618D02*
X13009819Y-144637142D01*
X13009819Y-144637142D02*
X12962200Y-144541904D01*
X12962200Y-144541904D02*
X12866961Y-144494285D01*
X12866961Y-144494285D02*
X12819342Y-144494285D01*
X12819342Y-144494285D02*
X12724104Y-144541904D01*
X12724104Y-144541904D02*
X12676485Y-144637142D01*
X12676485Y-144637142D02*
X12676485Y-144779999D01*
X12676485Y-144779999D02*
X12628866Y-144875237D01*
X12628866Y-144875237D02*
X12533628Y-144922856D01*
X12533628Y-144922856D02*
X12486009Y-144922856D01*
X12486009Y-144922856D02*
X12390771Y-144875237D01*
X12390771Y-144875237D02*
X12343152Y-144779999D01*
X12343152Y-144779999D02*
X12343152Y-144637142D01*
X12343152Y-144637142D02*
X12390771Y-144541904D01*
X13009819Y-144065713D02*
X12343152Y-144065713D01*
X12009819Y-144065713D02*
X12057438Y-144113332D01*
X12057438Y-144113332D02*
X12105057Y-144065713D01*
X12105057Y-144065713D02*
X12057438Y-144018094D01*
X12057438Y-144018094D02*
X12009819Y-144065713D01*
X12009819Y-144065713D02*
X12105057Y-144065713D01*
X13009819Y-143160952D02*
X12009819Y-143160952D01*
X12962200Y-143160952D02*
X13009819Y-143256190D01*
X13009819Y-143256190D02*
X13009819Y-143446666D01*
X13009819Y-143446666D02*
X12962200Y-143541904D01*
X12962200Y-143541904D02*
X12914580Y-143589523D01*
X12914580Y-143589523D02*
X12819342Y-143637142D01*
X12819342Y-143637142D02*
X12533628Y-143637142D01*
X12533628Y-143637142D02*
X12438390Y-143589523D01*
X12438390Y-143589523D02*
X12390771Y-143541904D01*
X12390771Y-143541904D02*
X12343152Y-143446666D01*
X12343152Y-143446666D02*
X12343152Y-143256190D01*
X12343152Y-143256190D02*
X12390771Y-143160952D01*
X12962200Y-142303809D02*
X13009819Y-142399047D01*
X13009819Y-142399047D02*
X13009819Y-142589523D01*
X13009819Y-142589523D02*
X12962200Y-142684761D01*
X12962200Y-142684761D02*
X12866961Y-142732380D01*
X12866961Y-142732380D02*
X12486009Y-142732380D01*
X12486009Y-142732380D02*
X12390771Y-142684761D01*
X12390771Y-142684761D02*
X12343152Y-142589523D01*
X12343152Y-142589523D02*
X12343152Y-142399047D01*
X12343152Y-142399047D02*
X12390771Y-142303809D01*
X12390771Y-142303809D02*
X12486009Y-142256190D01*
X12486009Y-142256190D02*
X12581247Y-142256190D01*
X12581247Y-142256190D02*
X12676485Y-142732380D01*
X10609819Y-146041904D02*
X11419342Y-146041904D01*
X11419342Y-146041904D02*
X11514580Y-145994285D01*
X11514580Y-145994285D02*
X11562200Y-145946666D01*
X11562200Y-145946666D02*
X11609819Y-145851428D01*
X11609819Y-145851428D02*
X11609819Y-145660952D01*
X11609819Y-145660952D02*
X11562200Y-145565714D01*
X11562200Y-145565714D02*
X11514580Y-145518095D01*
X11514580Y-145518095D02*
X11419342Y-145470476D01*
X11419342Y-145470476D02*
X10609819Y-145470476D01*
X11562200Y-145041904D02*
X11609819Y-144899047D01*
X11609819Y-144899047D02*
X11609819Y-144660952D01*
X11609819Y-144660952D02*
X11562200Y-144565714D01*
X11562200Y-144565714D02*
X11514580Y-144518095D01*
X11514580Y-144518095D02*
X11419342Y-144470476D01*
X11419342Y-144470476D02*
X11324104Y-144470476D01*
X11324104Y-144470476D02*
X11228866Y-144518095D01*
X11228866Y-144518095D02*
X11181247Y-144565714D01*
X11181247Y-144565714D02*
X11133628Y-144660952D01*
X11133628Y-144660952D02*
X11086009Y-144851428D01*
X11086009Y-144851428D02*
X11038390Y-144946666D01*
X11038390Y-144946666D02*
X10990771Y-144994285D01*
X10990771Y-144994285D02*
X10895533Y-145041904D01*
X10895533Y-145041904D02*
X10800295Y-145041904D01*
X10800295Y-145041904D02*
X10705057Y-144994285D01*
X10705057Y-144994285D02*
X10657438Y-144946666D01*
X10657438Y-144946666D02*
X10609819Y-144851428D01*
X10609819Y-144851428D02*
X10609819Y-144613333D01*
X10609819Y-144613333D02*
X10657438Y-144470476D01*
X11086009Y-143708571D02*
X11133628Y-143565714D01*
X11133628Y-143565714D02*
X11181247Y-143518095D01*
X11181247Y-143518095D02*
X11276485Y-143470476D01*
X11276485Y-143470476D02*
X11419342Y-143470476D01*
X11419342Y-143470476D02*
X11514580Y-143518095D01*
X11514580Y-143518095D02*
X11562200Y-143565714D01*
X11562200Y-143565714D02*
X11609819Y-143660952D01*
X11609819Y-143660952D02*
X11609819Y-144041904D01*
X11609819Y-144041904D02*
X10609819Y-144041904D01*
X10609819Y-144041904D02*
X10609819Y-143708571D01*
X10609819Y-143708571D02*
X10657438Y-143613333D01*
X10657438Y-143613333D02*
X10705057Y-143565714D01*
X10705057Y-143565714D02*
X10800295Y-143518095D01*
X10800295Y-143518095D02*
X10895533Y-143518095D01*
X10895533Y-143518095D02*
X10990771Y-143565714D01*
X10990771Y-143565714D02*
X11038390Y-143613333D01*
X11038390Y-143613333D02*
X11086009Y-143708571D01*
X11086009Y-143708571D02*
X11086009Y-144041904D01*
X14527319Y-150209285D02*
X14527319Y-150780713D01*
X14527319Y-150494999D02*
X13527319Y-150494999D01*
X13527319Y-150494999D02*
X13670176Y-150590237D01*
X13670176Y-150590237D02*
X13765414Y-150685475D01*
X13765414Y-150685475D02*
X13813033Y-150780713D01*
X110521905Y-106524819D02*
X110521905Y-105524819D01*
X110521905Y-106001009D02*
X111093333Y-106001009D01*
X111093333Y-106524819D02*
X111093333Y-105524819D01*
X112093333Y-106524819D02*
X111521905Y-106524819D01*
X111807619Y-106524819D02*
X111807619Y-105524819D01*
X111807619Y-105524819D02*
X111712381Y-105667676D01*
X111712381Y-105667676D02*
X111617143Y-105762914D01*
X111617143Y-105762914D02*
X111521905Y-105810533D01*
X112474286Y-105620057D02*
X112521905Y-105572438D01*
X112521905Y-105572438D02*
X112617143Y-105524819D01*
X112617143Y-105524819D02*
X112855238Y-105524819D01*
X112855238Y-105524819D02*
X112950476Y-105572438D01*
X112950476Y-105572438D02*
X112998095Y-105620057D01*
X112998095Y-105620057D02*
X113045714Y-105715295D01*
X113045714Y-105715295D02*
X113045714Y-105810533D01*
X113045714Y-105810533D02*
X112998095Y-105953390D01*
X112998095Y-105953390D02*
X112426667Y-106524819D01*
X112426667Y-106524819D02*
X113045714Y-106524819D01*
X217678095Y-65884819D02*
X217678095Y-64884819D01*
X217678095Y-65361009D02*
X218249523Y-65361009D01*
X218249523Y-65884819D02*
X218249523Y-64884819D01*
X218773333Y-65884819D02*
X218963809Y-65884819D01*
X218963809Y-65884819D02*
X219059047Y-65837200D01*
X219059047Y-65837200D02*
X219106666Y-65789580D01*
X219106666Y-65789580D02*
X219201904Y-65646723D01*
X219201904Y-65646723D02*
X219249523Y-65456247D01*
X219249523Y-65456247D02*
X219249523Y-65075295D01*
X219249523Y-65075295D02*
X219201904Y-64980057D01*
X219201904Y-64980057D02*
X219154285Y-64932438D01*
X219154285Y-64932438D02*
X219059047Y-64884819D01*
X219059047Y-64884819D02*
X218868571Y-64884819D01*
X218868571Y-64884819D02*
X218773333Y-64932438D01*
X218773333Y-64932438D02*
X218725714Y-64980057D01*
X218725714Y-64980057D02*
X218678095Y-65075295D01*
X218678095Y-65075295D02*
X218678095Y-65313390D01*
X218678095Y-65313390D02*
X218725714Y-65408628D01*
X218725714Y-65408628D02*
X218773333Y-65456247D01*
X218773333Y-65456247D02*
X218868571Y-65503866D01*
X218868571Y-65503866D02*
X219059047Y-65503866D01*
X219059047Y-65503866D02*
X219154285Y-65456247D01*
X219154285Y-65456247D02*
X219201904Y-65408628D01*
X219201904Y-65408628D02*
X219249523Y-65313390D01*
X110521905Y-65884819D02*
X110521905Y-64884819D01*
X110521905Y-65361009D02*
X111093333Y-65361009D01*
X111093333Y-65884819D02*
X111093333Y-64884819D01*
X112093333Y-65884819D02*
X111521905Y-65884819D01*
X111807619Y-65884819D02*
X111807619Y-64884819D01*
X111807619Y-64884819D02*
X111712381Y-65027676D01*
X111712381Y-65027676D02*
X111617143Y-65122914D01*
X111617143Y-65122914D02*
X111521905Y-65170533D01*
X112712381Y-64884819D02*
X112807619Y-64884819D01*
X112807619Y-64884819D02*
X112902857Y-64932438D01*
X112902857Y-64932438D02*
X112950476Y-64980057D01*
X112950476Y-64980057D02*
X112998095Y-65075295D01*
X112998095Y-65075295D02*
X113045714Y-65265771D01*
X113045714Y-65265771D02*
X113045714Y-65503866D01*
X113045714Y-65503866D02*
X112998095Y-65694342D01*
X112998095Y-65694342D02*
X112950476Y-65789580D01*
X112950476Y-65789580D02*
X112902857Y-65837200D01*
X112902857Y-65837200D02*
X112807619Y-65884819D01*
X112807619Y-65884819D02*
X112712381Y-65884819D01*
X112712381Y-65884819D02*
X112617143Y-65837200D01*
X112617143Y-65837200D02*
X112569524Y-65789580D01*
X112569524Y-65789580D02*
X112521905Y-65694342D01*
X112521905Y-65694342D02*
X112474286Y-65503866D01*
X112474286Y-65503866D02*
X112474286Y-65265771D01*
X112474286Y-65265771D02*
X112521905Y-65075295D01*
X112521905Y-65075295D02*
X112569524Y-64980057D01*
X112569524Y-64980057D02*
X112617143Y-64932438D01*
X112617143Y-64932438D02*
X112712381Y-64884819D01*
X258318095Y-103984819D02*
X258318095Y-102984819D01*
X258318095Y-103461009D02*
X258889523Y-103461009D01*
X258889523Y-103984819D02*
X258889523Y-102984819D01*
X259270476Y-102984819D02*
X259937142Y-102984819D01*
X259937142Y-102984819D02*
X259508571Y-103984819D01*
X271311845Y-145756569D02*
X271883273Y-145756569D01*
X271597559Y-146756569D02*
X271597559Y-145756569D01*
X272216607Y-146756569D02*
X272216607Y-145756569D01*
X272216607Y-145756569D02*
X272597559Y-145756569D01*
X272597559Y-145756569D02*
X272692797Y-145804188D01*
X272692797Y-145804188D02*
X272740416Y-145851807D01*
X272740416Y-145851807D02*
X272788035Y-145947045D01*
X272788035Y-145947045D02*
X272788035Y-146089902D01*
X272788035Y-146089902D02*
X272740416Y-146185140D01*
X272740416Y-146185140D02*
X272692797Y-146232759D01*
X272692797Y-146232759D02*
X272597559Y-146280378D01*
X272597559Y-146280378D02*
X272216607Y-146280378D01*
X273740416Y-146756569D02*
X273168988Y-146756569D01*
X273454702Y-146756569D02*
X273454702Y-145756569D01*
X273454702Y-145756569D02*
X273359464Y-145899426D01*
X273359464Y-145899426D02*
X273264226Y-145994664D01*
X273264226Y-145994664D02*
X273168988Y-146042283D01*
%TO.C,U3*%
X319000000Y-141230000D02*
X322580000Y-141230000D01*
X319000000Y-148330000D02*
X319000000Y-141230000D01*
X319000000Y-148330000D02*
X322580000Y-148330000D01*
X322580000Y-135890000D02*
X289560000Y-135890000D01*
X289560000Y-153670000D01*
X322580000Y-153670000D01*
X322580000Y-135890000D01*
D11*
%TO.C,TP4*%
X62160000Y-152400000D02*
G75*
G02*
X59760000Y-152400000I-1200000J0D01*
G01*
X59760000Y-152400000D02*
G75*
G02*
X62160000Y-152400000I1200000J0D01*
G01*
%TO.C,TP2*%
X276155000Y-137160000D02*
G75*
G02*
X273755000Y-137160000I-1200000J0D01*
G01*
X273755000Y-137160000D02*
G75*
G02*
X276155000Y-137160000I1200000J0D01*
G01*
%TO.C,TP3*%
X64700000Y-144780000D02*
G75*
G02*
X62300000Y-144780000I-1200000J0D01*
G01*
X62300000Y-144780000D02*
G75*
G02*
X64700000Y-144780000I1200000J0D01*
G01*
D10*
%TO.C,U4*%
X13740000Y-141230000D02*
X10160000Y-141230000D01*
X13740000Y-141230000D02*
X13740000Y-148330000D01*
X13740000Y-148330000D02*
X10160000Y-148330000D01*
X10160000Y-153670000D02*
X43180000Y-153670000D01*
X43180000Y-135890000D01*
X10160000Y-135890000D01*
X10160000Y-153670000D01*
D11*
%TO.C,TP1*%
X273773750Y-144303750D02*
G75*
G02*
X271373750Y-144303750I-1200000J0D01*
G01*
X271373750Y-144303750D02*
G75*
G02*
X273773750Y-144303750I1200000J0D01*
G01*
%TD*%
M02*
