%TF.GenerationSoftware,KiCad,Pcbnew,9.0.5*%
%TF.CreationDate,2026-06-21T18:39:48+05:30*%
%TF.ProjectId,Split_keyboard,53706c69-745f-46b6-9579-626f6172642e,rev?*%
%TF.SameCoordinates,Original*%
%TF.FileFunction,Soldermask,Bot*%
%TF.FilePolarity,Negative*%
%FSLAX46Y46*%
G04 Gerber Fmt 4.6, Leading zero omitted, Abs format (unit mm)*
G04 Created by KiCad (PCBNEW 9.0.5) date 2026-06-21 18:39:48*
%MOMM*%
%LPD*%
G01*
G04 APERTURE LIST*
G04 Aperture macros list*
%AMRoundRect*
0 Rectangle with rounded corners*
0 $1 Rounding radius*
0 $2 $3 $4 $5 $6 $7 $8 $9 X,Y pos of 4 corners*
0 Add a 4 corners polygon primitive as box body*
4,1,4,$2,$3,$4,$5,$6,$7,$8,$9,$2,$3,0*
0 Add four circle primitives for the rounded corners*
1,1,$1+$1,$2,$3*
1,1,$1+$1,$4,$5*
1,1,$1+$1,$6,$7*
1,1,$1+$1,$8,$9*
0 Add four rect primitives between the rounded corners*
20,1,$1+$1,$2,$3,$4,$5,0*
20,1,$1+$1,$4,$5,$6,$7,0*
20,1,$1+$1,$6,$7,$8,$9,0*
20,1,$1+$1,$8,$9,$2,$3,0*%
G04 Aperture macros list end*
%ADD10C,2.200000*%
%ADD11C,1.800000*%
%ADD12RoundRect,0.450000X-0.450000X0.450000X-0.450000X-0.450000X0.450000X-0.450000X0.450000X0.450000X0*%
%ADD13O,4.340000X1.800000*%
%ADD14RoundRect,0.450000X0.450000X-0.450000X0.450000X0.450000X-0.450000X0.450000X-0.450000X-0.450000X0*%
%ADD15RoundRect,0.225000X0.375000X-0.225000X0.375000X0.225000X-0.375000X0.225000X-0.375000X-0.225000X0*%
%ADD16C,1.700000*%
%ADD17C,3.400000*%
%ADD18C,3.300000*%
%ADD19RoundRect,0.260000X-1.065000X-1.040000X1.065000X-1.040000X1.065000X1.040000X-1.065000X1.040000X0*%
%ADD20RoundRect,0.260000X-0.402317X-1.433166X1.442317X-0.368166X0.402317X1.433166X-1.442317X0.368166X0*%
%ADD21RoundRect,0.260000X1.442317X0.368166X-0.402317X1.433166X-1.442317X-0.368166X0.402317X-1.433166X0*%
%ADD22RoundRect,0.225000X0.437260X-0.007356X0.212260X0.382356X-0.437260X0.007356X-0.212260X-0.382356X0*%
%ADD23RoundRect,0.250000X-0.262500X-0.450000X0.262500X-0.450000X0.262500X0.450000X-0.262500X0.450000X0*%
%ADD24RoundRect,0.225000X-0.212260X0.382356X-0.437260X-0.007356X0.212260X-0.382356X0.437260X0.007356X0*%
G04 APERTURE END LIST*
D10*
%TO.C,H8*%
X71120000Y-106680000D03*
%TD*%
D11*
%TO.C,U3*%
X318770000Y-137160000D03*
X316230000Y-137160000D03*
D12*
X313690000Y-137160000D03*
X311150000Y-137160000D03*
D11*
X308610000Y-137160000D03*
X306070000Y-137160000D03*
X303530000Y-137160000D03*
X300990000Y-137160000D03*
X298450000Y-137160000D03*
X295910000Y-137160000D03*
X293370000Y-137160000D03*
X290830000Y-137160000D03*
D13*
X320040000Y-152400000D03*
D12*
X316230000Y-152400000D03*
D11*
X313690000Y-152400000D03*
X311150000Y-152400000D03*
X308610000Y-152400000D03*
X306070000Y-152400000D03*
X303530000Y-152400000D03*
X300990000Y-152400000D03*
X298450000Y-152400000D03*
X295910000Y-152400000D03*
X293370000Y-152400000D03*
X290830000Y-152400000D03*
X293923720Y-140233400D03*
X293923720Y-142773400D03*
X293923720Y-145313400D03*
D12*
X321310000Y-137160000D03*
D11*
X321310000Y-152400000D03*
%TD*%
D10*
%TO.C,H11*%
X218440000Y-109220000D03*
%TD*%
%TO.C,H1*%
X299720000Y-71120000D03*
%TD*%
%TO.C,H4*%
X30480000Y-109220000D03*
%TD*%
%TO.C,H2*%
X30480000Y-71120000D03*
%TD*%
%TO.C,H5*%
X259080000Y-68580000D03*
%TD*%
%TO.C,H3*%
X299720000Y-111760000D03*
%TD*%
%TO.C,H6*%
X71120000Y-68580000D03*
%TD*%
D11*
%TO.C,U4*%
X13970000Y-152400000D03*
X16510000Y-152400000D03*
D14*
X19050000Y-152400000D03*
X21590000Y-152400000D03*
D11*
X24130000Y-152400000D03*
X26670000Y-152400000D03*
X29210000Y-152400000D03*
X31750000Y-152400000D03*
X34290000Y-152400000D03*
X36830000Y-152400000D03*
X39370000Y-152400000D03*
X41910000Y-152400000D03*
D13*
X12700000Y-137160000D03*
D14*
X16510000Y-137160000D03*
D11*
X19050000Y-137160000D03*
X21590000Y-137160000D03*
X24130000Y-137160000D03*
X26670000Y-137160000D03*
X29210000Y-137160000D03*
X31750000Y-137160000D03*
X34290000Y-137160000D03*
X36830000Y-137160000D03*
X39370000Y-137160000D03*
X41910000Y-137160000D03*
X38816280Y-149326600D03*
X38816280Y-146786600D03*
X38816280Y-144246600D03*
D14*
X11430000Y-152400000D03*
D11*
X11430000Y-137160000D03*
%TD*%
D10*
%TO.C,H12*%
X111760000Y-109220000D03*
%TD*%
%TO.C,H9*%
X218440000Y-68580000D03*
%TD*%
%TO.C,H10*%
X111760000Y-68580000D03*
%TD*%
%TO.C,H7*%
X259080000Y-106680000D03*
%TD*%
D15*
%TO.C,D25*%
X302260000Y-57530000D03*
X302260000Y-54230000D03*
%TD*%
D16*
%TO.C,SW32*%
X116420000Y-121920000D03*
D17*
X121920000Y-121920000D03*
D16*
X127420000Y-121920000D03*
D18*
X126920000Y-118170000D03*
D19*
X130165000Y-118170000D03*
X118675000Y-115970000D03*
D18*
X121920000Y-115970000D03*
%TD*%
D16*
%TO.C,SW6*%
X185736860Y-150070000D03*
D17*
X190500000Y-147320000D03*
D16*
X195263140Y-144570000D03*
D18*
X192955127Y-141572405D03*
D20*
X195765379Y-139949905D03*
X184714748Y-143789649D03*
D18*
X187525000Y-142167149D03*
%TD*%
D16*
%TO.C,SW26*%
X304380000Y-81280000D03*
D17*
X309880000Y-81280000D03*
D16*
X315380000Y-81280000D03*
D18*
X314880000Y-77530000D03*
D19*
X318125000Y-77530000D03*
X306635000Y-75330000D03*
D18*
X309880000Y-75330000D03*
%TD*%
D15*
%TO.C,D20*%
X261620000Y-115950000D03*
X261620000Y-112650000D03*
%TD*%
D16*
%TO.C,SW28*%
X304380000Y-121920000D03*
D17*
X309880000Y-121920000D03*
D16*
X315380000Y-121920000D03*
D18*
X314880000Y-118170000D03*
D19*
X318125000Y-118170000D03*
X306635000Y-115970000D03*
D18*
X309880000Y-115970000D03*
%TD*%
D15*
%TO.C,D53*%
X12700000Y-57530000D03*
X12700000Y-54230000D03*
%TD*%
%TO.C,D41*%
X73660000Y-72770000D03*
X73660000Y-69470000D03*
%TD*%
%TO.C,D47*%
X53340000Y-95630000D03*
X53340000Y-92330000D03*
%TD*%
%TO.C,D30*%
X114300000Y-77850000D03*
X114300000Y-74550000D03*
%TD*%
D16*
%TO.C,SW31*%
X116420000Y-101600000D03*
D17*
X121920000Y-101600000D03*
D16*
X127420000Y-101600000D03*
D18*
X126920000Y-97850000D03*
D19*
X130165000Y-97850000D03*
X118675000Y-95650000D03*
D18*
X121920000Y-95650000D03*
%TD*%
D15*
%TO.C,D40*%
X73660000Y-52450000D03*
X73660000Y-49150000D03*
%TD*%
%TO.C,D43*%
X73660000Y-113410000D03*
X73660000Y-110110000D03*
%TD*%
%TO.C,D12*%
X241300000Y-52450000D03*
X241300000Y-49150000D03*
%TD*%
%TO.C,D11*%
X210820000Y-138810000D03*
X210820000Y-135510000D03*
%TD*%
%TO.C,D1*%
X200660000Y-57530000D03*
X200660000Y-54230000D03*
%TD*%
%TO.C,D44*%
X83820000Y-138810000D03*
X83820000Y-135510000D03*
%TD*%
%TO.C,D17*%
X261620000Y-54990000D03*
X261620000Y-51690000D03*
%TD*%
D16*
%TO.C,SW49*%
X35140000Y-60960000D03*
D17*
X40640000Y-60960000D03*
D16*
X46140000Y-60960000D03*
D18*
X45640000Y-57210000D03*
D19*
X48885000Y-57210000D03*
X37395000Y-55010000D03*
D18*
X40640000Y-55010000D03*
%TD*%
D16*
%TO.C,SW15*%
X243420000Y-116840000D03*
D17*
X248920000Y-116840000D03*
D16*
X254420000Y-116840000D03*
D18*
X253920000Y-113090000D03*
D19*
X257165000Y-113090000D03*
X245675000Y-110890000D03*
D18*
X248920000Y-110890000D03*
%TD*%
D15*
%TO.C,D52*%
X33020000Y-118490000D03*
X33020000Y-115190000D03*
%TD*%
D16*
%TO.C,SW22*%
X284060000Y-81280000D03*
D17*
X289560000Y-81280000D03*
D16*
X295060000Y-81280000D03*
D18*
X294560000Y-77530000D03*
D19*
X297805000Y-77530000D03*
X286315000Y-75330000D03*
D18*
X289560000Y-75330000D03*
%TD*%
D16*
%TO.C,SW14*%
X243420000Y-96520000D03*
D17*
X248920000Y-96520000D03*
D16*
X254420000Y-96520000D03*
D18*
X253920000Y-92770000D03*
D19*
X257165000Y-92770000D03*
X245675000Y-90570000D03*
D18*
X248920000Y-90570000D03*
%TD*%
D16*
%TO.C,SW29*%
X116420000Y-60960000D03*
D17*
X121920000Y-60960000D03*
D16*
X127420000Y-60960000D03*
D18*
X126920000Y-57210000D03*
D19*
X130165000Y-57210000D03*
X118675000Y-55010000D03*
D18*
X121920000Y-55010000D03*
%TD*%
D15*
%TO.C,D22*%
X281940000Y-77850000D03*
X281940000Y-74550000D03*
%TD*%
%TO.C,D54*%
X12700000Y-77850000D03*
X12700000Y-74550000D03*
%TD*%
%TO.C,D8*%
X220980000Y-75310000D03*
X220980000Y-72010000D03*
%TD*%
%TO.C,D29*%
X114300000Y-57530000D03*
X114300000Y-54230000D03*
%TD*%
D16*
%TO.C,SW36*%
X96100000Y-78740000D03*
D17*
X101600000Y-78740000D03*
D16*
X107100000Y-78740000D03*
D18*
X106600000Y-74990000D03*
D19*
X109845000Y-74990000D03*
X98355000Y-72790000D03*
D18*
X101600000Y-72790000D03*
%TD*%
D15*
%TO.C,D36*%
X93980000Y-75310000D03*
X93980000Y-72010000D03*
%TD*%
D16*
%TO.C,SW11*%
X212940000Y-142240000D03*
D17*
X218440000Y-142240000D03*
D16*
X223940000Y-142240000D03*
D18*
X223440000Y-138490000D03*
D19*
X226685000Y-138490000D03*
X215195000Y-136290000D03*
D18*
X218440000Y-136290000D03*
%TD*%
D16*
%TO.C,SW48*%
X55460000Y-119380000D03*
D17*
X60960000Y-119380000D03*
D16*
X66460000Y-119380000D03*
D18*
X65960000Y-115630000D03*
D19*
X69205000Y-115630000D03*
X57715000Y-113430000D03*
D18*
X60960000Y-113430000D03*
%TD*%
D16*
%TO.C,SW3*%
X202780000Y-101600000D03*
D17*
X208280000Y-101600000D03*
D16*
X213780000Y-101600000D03*
D18*
X213280000Y-97850000D03*
D19*
X216525000Y-97850000D03*
X205035000Y-95650000D03*
D18*
X208280000Y-95650000D03*
%TD*%
D16*
%TO.C,SW19*%
X263740000Y-99060000D03*
D17*
X269240000Y-99060000D03*
D16*
X274740000Y-99060000D03*
D18*
X274240000Y-95310000D03*
D19*
X277485000Y-95310000D03*
X265995000Y-93110000D03*
D18*
X269240000Y-93110000D03*
%TD*%
D16*
%TO.C,SW12*%
X243420000Y-55880000D03*
D17*
X248920000Y-55880000D03*
D16*
X254420000Y-55880000D03*
D18*
X253920000Y-52130000D03*
D19*
X257165000Y-52130000D03*
X245675000Y-49930000D03*
D18*
X248920000Y-49930000D03*
%TD*%
D15*
%TO.C,D14*%
X241300000Y-93090000D03*
X241300000Y-89790000D03*
%TD*%
D16*
%TO.C,SW2*%
X202780000Y-81280000D03*
D17*
X208280000Y-81280000D03*
D16*
X213780000Y-81280000D03*
D18*
X213280000Y-77530000D03*
D19*
X216525000Y-77530000D03*
X205035000Y-75330000D03*
D18*
X208280000Y-75330000D03*
%TD*%
D15*
%TO.C,D2*%
X200660000Y-77850000D03*
X200660000Y-74550000D03*
%TD*%
%TO.C,D27*%
X302260000Y-98170000D03*
X302260000Y-94870000D03*
%TD*%
D16*
%TO.C,SW33*%
X154623140Y-132290000D03*
D17*
X149860000Y-129540000D03*
D16*
X145096860Y-126790000D03*
D18*
X143654873Y-130287595D03*
D21*
X140844621Y-128665095D03*
X149695252Y-136315351D03*
D18*
X146885000Y-134692851D03*
%TD*%
D22*
%TO.C,D5*%
X173545000Y-133508942D03*
X171895000Y-130651058D03*
%TD*%
D15*
%TO.C,D42*%
X73660000Y-93090000D03*
X73660000Y-89790000D03*
%TD*%
D16*
%TO.C,SW40*%
X75780000Y-55880000D03*
D17*
X81280000Y-55880000D03*
D16*
X86780000Y-55880000D03*
D18*
X86280000Y-52130000D03*
D19*
X89525000Y-52130000D03*
X78035000Y-49930000D03*
D18*
X81280000Y-49930000D03*
%TD*%
D15*
%TO.C,D38*%
X93980000Y-115950000D03*
X93980000Y-112650000D03*
%TD*%
%TO.C,D50*%
X33020000Y-77850000D03*
X33020000Y-74550000D03*
%TD*%
%TO.C,D32*%
X114300000Y-118490000D03*
X114300000Y-115190000D03*
%TD*%
D16*
%TO.C,SW42*%
X75780000Y-96520000D03*
D17*
X81280000Y-96520000D03*
D16*
X86780000Y-96520000D03*
D18*
X86280000Y-92770000D03*
D19*
X89525000Y-92770000D03*
X78035000Y-90570000D03*
D18*
X81280000Y-90570000D03*
%TD*%
D16*
%TO.C,SW20*%
X263740000Y-119380000D03*
D17*
X269240000Y-119380000D03*
D16*
X274740000Y-119380000D03*
D18*
X274240000Y-115630000D03*
D19*
X277485000Y-115630000D03*
X265995000Y-113430000D03*
D18*
X269240000Y-113430000D03*
%TD*%
D16*
%TO.C,SW24*%
X284060000Y-121920000D03*
D17*
X289560000Y-121920000D03*
D16*
X295060000Y-121920000D03*
D18*
X294560000Y-118170000D03*
D19*
X297805000Y-118170000D03*
X286315000Y-115970000D03*
D18*
X289560000Y-115970000D03*
%TD*%
D16*
%TO.C,SW9*%
X223100000Y-99060000D03*
D17*
X228600000Y-99060000D03*
D16*
X234100000Y-99060000D03*
D18*
X233600000Y-95310000D03*
D19*
X236845000Y-95310000D03*
X225355000Y-93110000D03*
D18*
X228600000Y-93110000D03*
%TD*%
D23*
%TO.C,R4*%
X52427500Y-144780000D03*
X54252500Y-144780000D03*
%TD*%
D16*
%TO.C,SW44*%
X85940000Y-142240000D03*
D17*
X91440000Y-142240000D03*
D16*
X96940000Y-142240000D03*
D18*
X96440000Y-138490000D03*
D19*
X99685000Y-138490000D03*
X88195000Y-136290000D03*
D18*
X91440000Y-136290000D03*
%TD*%
D16*
%TO.C,SW46*%
X55460000Y-78740000D03*
D17*
X60960000Y-78740000D03*
D16*
X66460000Y-78740000D03*
D18*
X65960000Y-74990000D03*
D19*
X69205000Y-74990000D03*
X57715000Y-72790000D03*
D18*
X60960000Y-72790000D03*
%TD*%
D16*
%TO.C,SW39*%
X108800000Y-142240000D03*
D17*
X114300000Y-142240000D03*
D16*
X119800000Y-142240000D03*
D18*
X119300000Y-138490000D03*
D19*
X122545000Y-138490000D03*
X111055000Y-136290000D03*
D18*
X114300000Y-136290000D03*
%TD*%
D16*
%TO.C,SW16*%
X235800000Y-139700000D03*
D17*
X241300000Y-139700000D03*
D16*
X246800000Y-139700000D03*
D18*
X246300000Y-135950000D03*
D19*
X249545000Y-135950000D03*
X238055000Y-133750000D03*
D18*
X241300000Y-133750000D03*
%TD*%
D16*
%TO.C,SW7*%
X223100000Y-58420000D03*
D17*
X228600000Y-58420000D03*
D16*
X234100000Y-58420000D03*
D18*
X233600000Y-54670000D03*
D19*
X236845000Y-54670000D03*
X225355000Y-52470000D03*
D18*
X228600000Y-52470000D03*
%TD*%
D15*
%TO.C,D28*%
X302260000Y-118490000D03*
X302260000Y-115190000D03*
%TD*%
D16*
%TO.C,SW54*%
X14820000Y-81280000D03*
D17*
X20320000Y-81280000D03*
D16*
X25820000Y-81280000D03*
D18*
X25320000Y-77530000D03*
D19*
X28565000Y-77530000D03*
X17075000Y-75330000D03*
D18*
X20320000Y-75330000D03*
%TD*%
D15*
%TO.C,D26*%
X302260000Y-77850000D03*
X302260000Y-74550000D03*
%TD*%
D16*
%TO.C,SW18*%
X263740000Y-78740000D03*
D17*
X269240000Y-78740000D03*
D16*
X274740000Y-78740000D03*
D18*
X274240000Y-74990000D03*
D19*
X277485000Y-74990000D03*
X265995000Y-72790000D03*
D18*
X269240000Y-72790000D03*
%TD*%
D24*
%TO.C,D34*%
X145605000Y-153511058D03*
X143955000Y-156368942D03*
%TD*%
D16*
%TO.C,SW27*%
X304380000Y-101600000D03*
D17*
X309880000Y-101600000D03*
D16*
X315380000Y-101600000D03*
D18*
X314880000Y-97850000D03*
D19*
X318125000Y-97850000D03*
X306635000Y-95650000D03*
D18*
X309880000Y-95650000D03*
%TD*%
D16*
%TO.C,SW41*%
X75780000Y-76200000D03*
D17*
X81280000Y-76200000D03*
D16*
X86780000Y-76200000D03*
D18*
X86280000Y-72450000D03*
D19*
X89525000Y-72450000D03*
X78035000Y-70250000D03*
D18*
X81280000Y-70250000D03*
%TD*%
D16*
%TO.C,SW37*%
X96100000Y-99060000D03*
D17*
X101600000Y-99060000D03*
D16*
X107100000Y-99060000D03*
D18*
X106600000Y-95310000D03*
D19*
X109845000Y-95310000D03*
X98355000Y-93110000D03*
D18*
X101600000Y-93110000D03*
%TD*%
D16*
%TO.C,SW55*%
X14820000Y-101600000D03*
D17*
X20320000Y-101600000D03*
D16*
X25820000Y-101600000D03*
D18*
X25320000Y-97850000D03*
D19*
X28565000Y-97850000D03*
X17075000Y-95650000D03*
D18*
X20320000Y-95650000D03*
%TD*%
D15*
%TO.C,D23*%
X281940000Y-98170000D03*
X281940000Y-94870000D03*
%TD*%
%TO.C,D21*%
X281940000Y-57530000D03*
X281940000Y-54230000D03*
%TD*%
D16*
%TO.C,SW23*%
X284060000Y-101600000D03*
D17*
X289560000Y-101600000D03*
D16*
X295060000Y-101600000D03*
D18*
X294560000Y-97850000D03*
D19*
X297805000Y-97850000D03*
X286315000Y-95650000D03*
D18*
X289560000Y-95650000D03*
%TD*%
D16*
%TO.C,SW13*%
X243420000Y-76200000D03*
D17*
X248920000Y-76200000D03*
D16*
X254420000Y-76200000D03*
D18*
X253920000Y-72450000D03*
D19*
X257165000Y-72450000D03*
X245675000Y-70250000D03*
D18*
X248920000Y-70250000D03*
%TD*%
D15*
%TO.C,D24*%
X281940000Y-118490000D03*
X281940000Y-115190000D03*
%TD*%
D16*
%TO.C,SW17*%
X263740000Y-58420000D03*
D17*
X269240000Y-58420000D03*
D16*
X274740000Y-58420000D03*
D18*
X274240000Y-54670000D03*
D19*
X277485000Y-54670000D03*
X265995000Y-52470000D03*
D18*
X269240000Y-52470000D03*
%TD*%
D15*
%TO.C,D13*%
X241300000Y-72770000D03*
X241300000Y-69470000D03*
%TD*%
%TO.C,D3*%
X200660000Y-98170000D03*
X200660000Y-94870000D03*
%TD*%
%TO.C,D16*%
X233680000Y-136270000D03*
X233680000Y-132970000D03*
%TD*%
%TO.C,D15*%
X241300000Y-113410000D03*
X241300000Y-110110000D03*
%TD*%
D16*
%TO.C,SW1*%
X202780000Y-60960000D03*
D17*
X208280000Y-60960000D03*
D16*
X213780000Y-60960000D03*
D18*
X213280000Y-57210000D03*
D19*
X216525000Y-57210000D03*
X205035000Y-55010000D03*
D18*
X208280000Y-55010000D03*
%TD*%
D16*
%TO.C,SW38*%
X96100000Y-119380000D03*
D17*
X101600000Y-119380000D03*
D16*
X107100000Y-119380000D03*
D18*
X106600000Y-115630000D03*
D19*
X109845000Y-115630000D03*
X98355000Y-113430000D03*
D18*
X101600000Y-113430000D03*
%TD*%
D15*
%TO.C,D37*%
X93980000Y-95630000D03*
X93980000Y-92330000D03*
%TD*%
D16*
%TO.C,SW45*%
X55460000Y-58420000D03*
D17*
X60960000Y-58420000D03*
D16*
X66460000Y-58420000D03*
D18*
X65960000Y-54670000D03*
D19*
X69205000Y-54670000D03*
X57715000Y-52470000D03*
D18*
X60960000Y-52470000D03*
%TD*%
D16*
%TO.C,SW52*%
X35140000Y-121920000D03*
D17*
X40640000Y-121920000D03*
D16*
X46140000Y-121920000D03*
D18*
X45640000Y-118170000D03*
D19*
X48885000Y-118170000D03*
X37395000Y-115970000D03*
D18*
X40640000Y-115970000D03*
%TD*%
D16*
%TO.C,SW43*%
X75780000Y-116840000D03*
D17*
X81280000Y-116840000D03*
D16*
X86780000Y-116840000D03*
D18*
X86280000Y-113090000D03*
D19*
X89525000Y-113090000D03*
X78035000Y-110890000D03*
D18*
X81280000Y-110890000D03*
%TD*%
D16*
%TO.C,SW53*%
X14820000Y-60960000D03*
D17*
X20320000Y-60960000D03*
D16*
X25820000Y-60960000D03*
D18*
X25320000Y-57210000D03*
D19*
X28565000Y-57210000D03*
X17075000Y-55010000D03*
D18*
X20320000Y-55010000D03*
%TD*%
D16*
%TO.C,SW25*%
X304380000Y-60960000D03*
D17*
X309880000Y-60960000D03*
D16*
X315380000Y-60960000D03*
D18*
X314880000Y-57210000D03*
D19*
X318125000Y-57210000D03*
X306635000Y-55010000D03*
D18*
X309880000Y-55010000D03*
%TD*%
D15*
%TO.C,D51*%
X33020000Y-98170000D03*
X33020000Y-94870000D03*
%TD*%
D16*
%TO.C,SW35*%
X96100000Y-58420000D03*
D17*
X101600000Y-58420000D03*
D16*
X107100000Y-58420000D03*
D18*
X106600000Y-54670000D03*
D19*
X109845000Y-54670000D03*
X98355000Y-52470000D03*
D18*
X101600000Y-52470000D03*
%TD*%
D24*
%TO.C,D33*%
X155765000Y-135731058D03*
X154115000Y-138588942D03*
%TD*%
D15*
%TO.C,D4*%
X200660000Y-118490000D03*
X200660000Y-115190000D03*
%TD*%
D16*
%TO.C,SW21*%
X284060000Y-60960000D03*
D17*
X289560000Y-60960000D03*
D16*
X295060000Y-60960000D03*
D18*
X294560000Y-57210000D03*
D19*
X297805000Y-57210000D03*
X286315000Y-55010000D03*
D18*
X289560000Y-55010000D03*
%TD*%
D16*
%TO.C,SW50*%
X35140000Y-81280000D03*
D17*
X40640000Y-81280000D03*
D16*
X46140000Y-81280000D03*
D18*
X45640000Y-77530000D03*
D19*
X48885000Y-77530000D03*
X37395000Y-75330000D03*
D18*
X40640000Y-75330000D03*
%TD*%
D16*
%TO.C,SW5*%
X175576860Y-132290000D03*
D17*
X180340000Y-129540000D03*
D16*
X185103140Y-126790000D03*
D18*
X182795127Y-123792405D03*
D20*
X185605379Y-122169906D03*
X174554748Y-126009649D03*
D18*
X177365000Y-124387149D03*
%TD*%
D23*
%TO.C,R1*%
X278487500Y-144780000D03*
X280312500Y-144780000D03*
%TD*%
%TO.C,R3*%
X53261250Y-149066250D03*
X55086250Y-149066250D03*
%TD*%
D16*
%TO.C,SW47*%
X55460000Y-99060000D03*
D17*
X60960000Y-99060000D03*
D16*
X66460000Y-99060000D03*
D18*
X65960000Y-95310000D03*
D19*
X69205000Y-95310000D03*
X57715000Y-93110000D03*
D18*
X60960000Y-93110000D03*
%TD*%
D15*
%TO.C,D19*%
X261620000Y-95630000D03*
X261620000Y-92330000D03*
%TD*%
%TO.C,D10*%
X220980000Y-115950000D03*
X220980000Y-112650000D03*
%TD*%
D16*
%TO.C,SW56*%
X14820000Y-121920000D03*
D17*
X20320000Y-121920000D03*
D16*
X25820000Y-121920000D03*
D18*
X25320000Y-118170000D03*
D19*
X28565000Y-118170000D03*
X17075000Y-115970000D03*
D18*
X20320000Y-115970000D03*
%TD*%
D15*
%TO.C,D49*%
X33020000Y-57530000D03*
X33020000Y-54230000D03*
%TD*%
%TO.C,D46*%
X53340000Y-75310000D03*
X53340000Y-72010000D03*
%TD*%
D16*
%TO.C,SW34*%
X144463140Y-150070000D03*
D17*
X139700000Y-147320000D03*
D16*
X134936860Y-144570000D03*
D18*
X133494873Y-148067595D03*
D21*
X130684621Y-146445095D03*
X139535252Y-154095351D03*
D18*
X136725000Y-152472851D03*
%TD*%
D15*
%TO.C,D39*%
X106680000Y-138810000D03*
X106680000Y-135510000D03*
%TD*%
%TO.C,D18*%
X261620000Y-75310000D03*
X261620000Y-72010000D03*
%TD*%
%TO.C,D35*%
X93980000Y-54990000D03*
X93980000Y-51690000D03*
%TD*%
D22*
%TO.C,D6*%
X183705000Y-151288942D03*
X182055000Y-148431058D03*
%TD*%
D15*
%TO.C,D45*%
X53340000Y-54990000D03*
X53340000Y-51690000D03*
%TD*%
%TO.C,D48*%
X53340000Y-115950000D03*
X53340000Y-112650000D03*
%TD*%
%TO.C,D56*%
X12700000Y-118490000D03*
X12700000Y-115190000D03*
%TD*%
D16*
%TO.C,SW8*%
X223100000Y-78740000D03*
D17*
X228600000Y-78740000D03*
D16*
X234100000Y-78740000D03*
D18*
X233600000Y-74990000D03*
D19*
X236845000Y-74990000D03*
X225355000Y-72790000D03*
D18*
X228600000Y-72790000D03*
%TD*%
D16*
%TO.C,SW4*%
X202780000Y-121920000D03*
D17*
X208280000Y-121920000D03*
D16*
X213780000Y-121920000D03*
D18*
X213280000Y-118170000D03*
D19*
X216525000Y-118170000D03*
X205035000Y-115970000D03*
D18*
X208280000Y-115970000D03*
%TD*%
D23*
%TO.C,R2*%
X278487500Y-137160000D03*
X280312500Y-137160000D03*
%TD*%
D15*
%TO.C,D55*%
X12700000Y-98170000D03*
X12700000Y-94870000D03*
%TD*%
%TO.C,D7*%
X220980000Y-54990000D03*
X220980000Y-51690000D03*
%TD*%
%TO.C,D31*%
X114300000Y-98170000D03*
X114300000Y-94870000D03*
%TD*%
D16*
%TO.C,SW51*%
X35140000Y-101600000D03*
D17*
X40640000Y-101600000D03*
D16*
X46140000Y-101600000D03*
D18*
X45640000Y-97850000D03*
D19*
X48885000Y-97850000D03*
X37395000Y-95650000D03*
D18*
X40640000Y-95650000D03*
%TD*%
D15*
%TO.C,D9*%
X220980000Y-95630000D03*
X220980000Y-92330000D03*
%TD*%
D16*
%TO.C,SW10*%
X223100000Y-119380000D03*
D17*
X228600000Y-119380000D03*
D16*
X234100000Y-119380000D03*
D18*
X233600000Y-115630000D03*
D19*
X236845000Y-115630000D03*
X225355000Y-113430000D03*
D18*
X228600000Y-113430000D03*
%TD*%
D16*
%TO.C,SW30*%
X116420000Y-81280000D03*
D17*
X121920000Y-81280000D03*
D16*
X127420000Y-81280000D03*
D18*
X126920000Y-77530000D03*
D19*
X130165000Y-77530000D03*
X118675000Y-75330000D03*
D18*
X121920000Y-75330000D03*
%TD*%
M02*
