%TF.GenerationSoftware,KiCad,Pcbnew,9.0.5*%
%TF.CreationDate,2026-06-21T18:39:48+05:30*%
%TF.ProjectId,Split_keyboard,53706c69-745f-46b6-9579-626f6172642e,rev?*%
%TF.SameCoordinates,Original*%
%TF.FileFunction,Copper,L2,Bot*%
%TF.FilePolarity,Positive*%
%FSLAX46Y46*%
G04 Gerber Fmt 4.6, Leading zero omitted, Abs format (unit mm)*
G04 Created by KiCad (PCBNEW 9.0.5) date 2026-06-21 18:39:48*
%MOMM*%
%LPD*%
G01*
G04 APERTURE LIST*
G04 Aperture macros list*
%AMRoundRect*
0 Rectangle with rounded corners*
0 $1 Rounding radius*
0 $2 $3 $4 $5 $6 $7 $8 $9 X,Y pos of 4 corners*
0 Add a 4 corners polygon primitive as box body*
4,1,4,$2,$3,$4,$5,$6,$7,$8,$9,$2,$3,0*
0 Add four circle primitives for the rounded corners*
1,1,$1+$1,$2,$3*
1,1,$1+$1,$4,$5*
1,1,$1+$1,$6,$7*
1,1,$1+$1,$8,$9*
0 Add four rect primitives between the rounded corners*
20,1,$1+$1,$2,$3,$4,$5,0*
20,1,$1+$1,$4,$5,$6,$7,0*
20,1,$1+$1,$6,$7,$8,$9,0*
20,1,$1+$1,$8,$9,$2,$3,0*%
%AMRotRect*
0 Rectangle, with rotation*
0 The origin of the aperture is its center*
0 $1 length*
0 $2 width*
0 $3 Rotation angle, in degrees counterclockwise*
0 Add horizontal line*
21,1,$1,$2,0,0,$3*%
G04 Aperture macros list end*
%TA.AperFunction,ComponentPad*%
%ADD10C,1.800000*%
%TD*%
%TA.AperFunction,ComponentPad*%
%ADD11RoundRect,0.450000X-0.450000X0.450000X-0.450000X-0.450000X0.450000X-0.450000X0.450000X0.450000X0*%
%TD*%
%TA.AperFunction,ComponentPad*%
%ADD12O,4.340000X1.800000*%
%TD*%
%TA.AperFunction,ComponentPad*%
%ADD13RoundRect,0.450000X0.450000X-0.450000X0.450000X0.450000X-0.450000X0.450000X-0.450000X-0.450000X0*%
%TD*%
%TA.AperFunction,SMDPad,CuDef*%
%ADD14RoundRect,0.225000X0.375000X-0.225000X0.375000X0.225000X-0.375000X0.225000X-0.375000X-0.225000X0*%
%TD*%
%TA.AperFunction,ComponentPad*%
%ADD15C,3.300000*%
%TD*%
%TA.AperFunction,SMDPad,CuDef*%
%ADD16R,1.200000X2.600000*%
%TD*%
%TA.AperFunction,SMDPad,CuDef*%
%ADD17RoundRect,0.260000X-1.065000X-1.040000X1.065000X-1.040000X1.065000X1.040000X-1.065000X1.040000X0*%
%TD*%
%TA.AperFunction,SMDPad,CuDef*%
%ADD18RotRect,1.200000X2.600000X30.000000*%
%TD*%
%TA.AperFunction,SMDPad,CuDef*%
%ADD19RoundRect,0.260000X-0.402317X-1.433166X1.442317X-0.368166X0.402317X1.433166X-1.442317X0.368166X0*%
%TD*%
%TA.AperFunction,SMDPad,CuDef*%
%ADD20RotRect,1.200000X2.600000X210.000000*%
%TD*%
%TA.AperFunction,SMDPad,CuDef*%
%ADD21RotRect,1.200000X2.600000X150.000000*%
%TD*%
%TA.AperFunction,SMDPad,CuDef*%
%ADD22RoundRect,0.260000X1.442317X0.368166X-0.402317X1.433166X-1.442317X-0.368166X0.402317X-1.433166X0*%
%TD*%
%TA.AperFunction,SMDPad,CuDef*%
%ADD23RotRect,1.200000X2.600000X330.000000*%
%TD*%
%TA.AperFunction,SMDPad,CuDef*%
%ADD24RoundRect,0.225000X0.437260X-0.007356X0.212260X0.382356X-0.437260X0.007356X-0.212260X-0.382356X0*%
%TD*%
%TA.AperFunction,SMDPad,CuDef*%
%ADD25RoundRect,0.250000X-0.262500X-0.450000X0.262500X-0.450000X0.262500X0.450000X-0.262500X0.450000X0*%
%TD*%
%TA.AperFunction,SMDPad,CuDef*%
%ADD26RoundRect,0.225000X-0.212260X0.382356X-0.437260X-0.007356X0.212260X-0.382356X0.437260X0.007356X0*%
%TD*%
%TA.AperFunction,Conductor*%
%ADD27C,0.200000*%
%TD*%
G04 APERTURE END LIST*
D10*
%TO.P,U3,1,P0.06*%
%TO.N,SDA*%
X318770000Y-137160000D03*
%TO.P,U3,2,P0.08*%
%TO.N,SCL*%
X316230000Y-137160000D03*
D11*
%TO.P,U3,3,GND*%
%TO.N,GND*%
X313690000Y-137160000D03*
%TO.P,U3,4,GND*%
X311150000Y-137160000D03*
D10*
%TO.P,U3,5,P0.17*%
%TO.N,C1*%
X308610000Y-137160000D03*
%TO.P,U3,6,P0.20*%
%TO.N,C2*%
X306070000Y-137160000D03*
%TO.P,U3,7,P0.22*%
%TO.N,C3*%
X303530000Y-137160000D03*
%TO.P,U3,8,P0.24*%
%TO.N,C4*%
X300990000Y-137160000D03*
%TO.P,U3,9,P1.00*%
%TO.N,C5*%
X298450000Y-137160000D03*
%TO.P,U3,10,P0.11*%
%TO.N,C6*%
X295910000Y-137160000D03*
%TO.P,U3,11,P1.04-LF*%
%TO.N,unconnected-(U3-P1.04-LF-Pad11)*%
X293370000Y-137160000D03*
%TO.P,U3,12,P1.06-LF*%
%TO.N,unconnected-(U3-P1.06-LF-Pad12)*%
X290830000Y-137160000D03*
D12*
%TO.P,U3,13,BAT+*%
%TO.N,VBAT*%
X320040000Y-152400000D03*
D11*
%TO.P,U3,14,GND*%
%TO.N,GND*%
X316230000Y-152400000D03*
D10*
%TO.P,U3,15,RST*%
%TO.N,unconnected-(U3-RST-Pad15)*%
X313690000Y-152400000D03*
%TO.P,U3,16,3V3*%
%TO.N,+3.3V*%
X311150000Y-152400000D03*
%TO.P,U3,17,P0.31-LF*%
%TO.N,BT_PIN*%
X308610000Y-152400000D03*
%TO.P,U3,18,P0.29-LF*%
%TO.N,R1*%
X306070000Y-152400000D03*
%TO.P,U3,19,P0.02-LF*%
%TO.N,R2*%
X303530000Y-152400000D03*
%TO.P,U3,20,P1.15-LF*%
%TO.N,R3*%
X300990000Y-152400000D03*
%TO.P,U3,21,P1.13-LF*%
%TO.N,R4*%
X298450000Y-152400000D03*
%TO.P,U3,22,P1.11-LF*%
%TO.N,R5*%
X295910000Y-152400000D03*
%TO.P,U3,23,P0.10-LF*%
%TO.N,R6*%
X293370000Y-152400000D03*
%TO.P,U3,24,P0.09-LF*%
%TO.N,unconnected-(U3-P0.09-LF-Pad24)*%
X290830000Y-152400000D03*
%TO.P,U3,25,P1.01-LF*%
%TO.N,unconnected-(U3-P1.01-LF-Pad25)*%
X293923720Y-140233400D03*
%TO.P,U3,26,P1.02-LF*%
%TO.N,unconnected-(U3-P1.02-LF-Pad26)*%
X293923720Y-142773400D03*
%TO.P,U3,27,P1.07-LF*%
%TO.N,unconnected-(U3-P1.07-LF-Pad27)*%
X293923720Y-145313400D03*
D11*
%TO.P,U3,28,GND*%
%TO.N,GND*%
X321310000Y-137160000D03*
D10*
%TO.P,U3,29,BAT+*%
%TO.N,VBAT*%
X321310000Y-152400000D03*
%TD*%
%TO.P,U4,1,P0.06*%
%TO.N,SDA*%
X13970000Y-152400000D03*
%TO.P,U4,2,P0.08*%
%TO.N,SCL*%
X16510000Y-152400000D03*
D13*
%TO.P,U4,3,GND*%
%TO.N,GND*%
X19050000Y-152400000D03*
%TO.P,U4,4,GND*%
X21590000Y-152400000D03*
D10*
%TO.P,U4,5,P0.17*%
%TO.N,C1*%
X24130000Y-152400000D03*
%TO.P,U4,6,P0.20*%
%TO.N,C2*%
X26670000Y-152400000D03*
%TO.P,U4,7,P0.22*%
%TO.N,C3*%
X29210000Y-152400000D03*
%TO.P,U4,8,P0.24*%
%TO.N,C4*%
X31750000Y-152400000D03*
%TO.P,U4,9,P1.00*%
%TO.N,C5*%
X34290000Y-152400000D03*
%TO.P,U4,10,P0.11*%
%TO.N,C6*%
X36830000Y-152400000D03*
%TO.P,U4,11,P1.04-LF*%
%TO.N,unconnected-(U4-P1.04-LF-Pad11)*%
X39370000Y-152400000D03*
%TO.P,U4,12,P1.06-LF*%
%TO.N,unconnected-(U4-P1.06-LF-Pad12)*%
X41910000Y-152400000D03*
D12*
%TO.P,U4,13,BAT+*%
%TO.N,VBAT*%
X12700000Y-137160000D03*
D13*
%TO.P,U4,14,GND*%
%TO.N,GND*%
X16510000Y-137160000D03*
D10*
%TO.P,U4,15,RST*%
%TO.N,unconnected-(U4-RST-Pad15)*%
X19050000Y-137160000D03*
%TO.P,U4,16,3V3*%
%TO.N,+3.3V*%
X21590000Y-137160000D03*
%TO.P,U4,17,P0.31-LF*%
%TO.N,BT_PIN*%
X24130000Y-137160000D03*
%TO.P,U4,18,P0.29-LF*%
%TO.N,R1*%
X26670000Y-137160000D03*
%TO.P,U4,19,P0.02-LF*%
%TO.N,R2*%
X29210000Y-137160000D03*
%TO.P,U4,20,P1.15-LF*%
%TO.N,R3*%
X31750000Y-137160000D03*
%TO.P,U4,21,P1.13-LF*%
%TO.N,R4*%
X34290000Y-137160000D03*
%TO.P,U4,22,P1.11-LF*%
%TO.N,R5*%
X36830000Y-137160000D03*
%TO.P,U4,23,P0.10-LF*%
%TO.N,R6*%
X39370000Y-137160000D03*
%TO.P,U4,24,P0.09-LF*%
%TO.N,unconnected-(U4-P0.09-LF-Pad24)*%
X41910000Y-137160000D03*
%TO.P,U4,25,P1.01-LF*%
%TO.N,unconnected-(U4-P1.01-LF-Pad25)*%
X38816280Y-149326600D03*
%TO.P,U4,26,P1.02-LF*%
%TO.N,unconnected-(U4-P1.02-LF-Pad26)*%
X38816280Y-146786600D03*
%TO.P,U4,27,P1.07-LF*%
%TO.N,unconnected-(U4-P1.07-LF-Pad27)*%
X38816280Y-144246600D03*
D13*
%TO.P,U4,28,GND*%
%TO.N,GND*%
X11430000Y-152400000D03*
D10*
%TO.P,U4,29,BAT+*%
%TO.N,VBAT*%
X11430000Y-137160000D03*
%TD*%
D14*
%TO.P,D25,1,K*%
%TO.N,R1*%
X302260000Y-57530000D03*
%TO.P,D25,2,A*%
%TO.N,Net-(D25-A)*%
X302260000Y-54230000D03*
%TD*%
D15*
%TO.P,SW32,1,1*%
%TO.N,C1*%
X126920000Y-118170000D03*
D16*
X128470000Y-118170000D03*
D17*
X130165000Y-118170000D03*
%TO.P,SW32,2,2*%
%TO.N,Net-(D32-A)*%
X118675000Y-115970000D03*
D16*
X120370000Y-115970000D03*
D15*
X121920000Y-115970000D03*
%TD*%
%TO.P,SW6,1,1*%
%TO.N,C1*%
X192955127Y-141572405D03*
D18*
X194297466Y-140797405D03*
D19*
X195765379Y-139949905D03*
%TO.P,SW6,2,2*%
%TO.N,Net-(D6-A)*%
X184714748Y-143789649D03*
D20*
X186182661Y-142942149D03*
D15*
X187525000Y-142167149D03*
%TD*%
%TO.P,SW26,1,1*%
%TO.N,C6*%
X314880000Y-77530000D03*
D16*
X316430000Y-77530000D03*
D17*
X318125000Y-77530000D03*
%TO.P,SW26,2,2*%
%TO.N,Net-(D26-A)*%
X306635000Y-75330000D03*
D16*
X308330000Y-75330000D03*
D15*
X309880000Y-75330000D03*
%TD*%
D14*
%TO.P,D20,1,K*%
%TO.N,R4*%
X261620000Y-115950000D03*
%TO.P,D20,2,A*%
%TO.N,Net-(D20-A)*%
X261620000Y-112650000D03*
%TD*%
D15*
%TO.P,SW28,1,1*%
%TO.N,C6*%
X314880000Y-118170000D03*
D16*
X316430000Y-118170000D03*
D17*
X318125000Y-118170000D03*
%TO.P,SW28,2,2*%
%TO.N,Net-(D28-A)*%
X306635000Y-115970000D03*
D16*
X308330000Y-115970000D03*
D15*
X309880000Y-115970000D03*
%TD*%
D14*
%TO.P,D53,1,K*%
%TO.N,R1*%
X12700000Y-57530000D03*
%TO.P,D53,2,A*%
%TO.N,Net-(D53-A)*%
X12700000Y-54230000D03*
%TD*%
%TO.P,D41,1,K*%
%TO.N,R2*%
X73660000Y-72770000D03*
%TO.P,D41,2,A*%
%TO.N,Net-(D41-A)*%
X73660000Y-69470000D03*
%TD*%
%TO.P,D47,1,K*%
%TO.N,R3*%
X53340000Y-95630000D03*
%TO.P,D47,2,A*%
%TO.N,Net-(D47-A)*%
X53340000Y-92330000D03*
%TD*%
%TO.P,D30,1,K*%
%TO.N,R2*%
X114300000Y-77850000D03*
%TO.P,D30,2,A*%
%TO.N,Net-(D30-A)*%
X114300000Y-74550000D03*
%TD*%
D15*
%TO.P,SW31,1,1*%
%TO.N,C1*%
X126920000Y-97850000D03*
D16*
X128470000Y-97850000D03*
D17*
X130165000Y-97850000D03*
%TO.P,SW31,2,2*%
%TO.N,Net-(D31-A)*%
X118675000Y-95650000D03*
D16*
X120370000Y-95650000D03*
D15*
X121920000Y-95650000D03*
%TD*%
D14*
%TO.P,D40,1,K*%
%TO.N,R1*%
X73660000Y-52450000D03*
%TO.P,D40,2,A*%
%TO.N,Net-(D40-A)*%
X73660000Y-49150000D03*
%TD*%
%TO.P,D43,1,K*%
%TO.N,R4*%
X73660000Y-113410000D03*
%TO.P,D43,2,A*%
%TO.N,Net-(D43-A)*%
X73660000Y-110110000D03*
%TD*%
%TO.P,D12,1,K*%
%TO.N,R1*%
X241300000Y-52450000D03*
%TO.P,D12,2,A*%
%TO.N,Net-(D12-A)*%
X241300000Y-49150000D03*
%TD*%
%TO.P,D11,1,K*%
%TO.N,R5*%
X210820000Y-138810000D03*
%TO.P,D11,2,A*%
%TO.N,Net-(D11-A)*%
X210820000Y-135510000D03*
%TD*%
%TO.P,D1,1,K*%
%TO.N,R1*%
X200660000Y-57530000D03*
%TO.P,D1,2,A*%
%TO.N,Net-(D1-A)*%
X200660000Y-54230000D03*
%TD*%
%TO.P,D44,1,K*%
%TO.N,R5*%
X83820000Y-138810000D03*
%TO.P,D44,2,A*%
%TO.N,Net-(D44-A)*%
X83820000Y-135510000D03*
%TD*%
%TO.P,D17,1,K*%
%TO.N,R1*%
X261620000Y-54990000D03*
%TO.P,D17,2,A*%
%TO.N,Net-(D17-A)*%
X261620000Y-51690000D03*
%TD*%
D15*
%TO.P,SW49,1,1*%
%TO.N,C5*%
X45640000Y-57210000D03*
D16*
X47190000Y-57210000D03*
D17*
X48885000Y-57210000D03*
%TO.P,SW49,2,2*%
%TO.N,Net-(D49-A)*%
X37395000Y-55010000D03*
D16*
X39090000Y-55010000D03*
D15*
X40640000Y-55010000D03*
%TD*%
%TO.P,SW15,1,1*%
%TO.N,C3*%
X253920000Y-113090000D03*
D16*
X255470000Y-113090000D03*
D17*
X257165000Y-113090000D03*
%TO.P,SW15,2,2*%
%TO.N,Net-(D15-A)*%
X245675000Y-110890000D03*
D16*
X247370000Y-110890000D03*
D15*
X248920000Y-110890000D03*
%TD*%
D14*
%TO.P,D52,1,K*%
%TO.N,R4*%
X33020000Y-118490000D03*
%TO.P,D52,2,A*%
%TO.N,Net-(D52-A)*%
X33020000Y-115190000D03*
%TD*%
D15*
%TO.P,SW22,1,1*%
%TO.N,C5*%
X294560000Y-77530000D03*
D16*
X296110000Y-77530000D03*
D17*
X297805000Y-77530000D03*
%TO.P,SW22,2,2*%
%TO.N,Net-(D22-A)*%
X286315000Y-75330000D03*
D16*
X288010000Y-75330000D03*
D15*
X289560000Y-75330000D03*
%TD*%
%TO.P,SW14,1,1*%
%TO.N,C3*%
X253920000Y-92770000D03*
D16*
X255470000Y-92770000D03*
D17*
X257165000Y-92770000D03*
%TO.P,SW14,2,2*%
%TO.N,Net-(D14-A)*%
X245675000Y-90570000D03*
D16*
X247370000Y-90570000D03*
D15*
X248920000Y-90570000D03*
%TD*%
%TO.P,SW29,1,1*%
%TO.N,C1*%
X126920000Y-57210000D03*
D16*
X128470000Y-57210000D03*
D17*
X130165000Y-57210000D03*
%TO.P,SW29,2,2*%
%TO.N,Net-(D29-A)*%
X118675000Y-55010000D03*
D16*
X120370000Y-55010000D03*
D15*
X121920000Y-55010000D03*
%TD*%
D14*
%TO.P,D22,1,K*%
%TO.N,R2*%
X281940000Y-77850000D03*
%TO.P,D22,2,A*%
%TO.N,Net-(D22-A)*%
X281940000Y-74550000D03*
%TD*%
%TO.P,D54,1,K*%
%TO.N,R2*%
X12700000Y-77850000D03*
%TO.P,D54,2,A*%
%TO.N,Net-(D54-A)*%
X12700000Y-74550000D03*
%TD*%
%TO.P,D8,1,K*%
%TO.N,R2*%
X220980000Y-75310000D03*
%TO.P,D8,2,A*%
%TO.N,Net-(D8-A)*%
X220980000Y-72010000D03*
%TD*%
%TO.P,D29,1,K*%
%TO.N,R1*%
X114300000Y-57530000D03*
%TO.P,D29,2,A*%
%TO.N,Net-(D29-A)*%
X114300000Y-54230000D03*
%TD*%
D15*
%TO.P,SW36,1,1*%
%TO.N,C2*%
X106600000Y-74990000D03*
D16*
X108150000Y-74990000D03*
D17*
X109845000Y-74990000D03*
%TO.P,SW36,2,2*%
%TO.N,Net-(D36-A)*%
X98355000Y-72790000D03*
D16*
X100050000Y-72790000D03*
D15*
X101600000Y-72790000D03*
%TD*%
D14*
%TO.P,D36,1,K*%
%TO.N,R2*%
X93980000Y-75310000D03*
%TO.P,D36,2,A*%
%TO.N,Net-(D36-A)*%
X93980000Y-72010000D03*
%TD*%
D15*
%TO.P,SW11,1,1*%
%TO.N,C2*%
X223440000Y-138490000D03*
D16*
X224990000Y-138490000D03*
D17*
X226685000Y-138490000D03*
%TO.P,SW11,2,2*%
%TO.N,Net-(D11-A)*%
X215195000Y-136290000D03*
D16*
X216890000Y-136290000D03*
D15*
X218440000Y-136290000D03*
%TD*%
%TO.P,SW48,1,1*%
%TO.N,C4*%
X65960000Y-115630000D03*
D16*
X67510000Y-115630000D03*
D17*
X69205000Y-115630000D03*
%TO.P,SW48,2,2*%
%TO.N,Net-(D48-A)*%
X57715000Y-113430000D03*
D16*
X59410000Y-113430000D03*
D15*
X60960000Y-113430000D03*
%TD*%
%TO.P,SW3,1,1*%
%TO.N,C1*%
X213280000Y-97850000D03*
D16*
X214830000Y-97850000D03*
D17*
X216525000Y-97850000D03*
%TO.P,SW3,2,2*%
%TO.N,Net-(D3-A)*%
X205035000Y-95650000D03*
D16*
X206730000Y-95650000D03*
D15*
X208280000Y-95650000D03*
%TD*%
%TO.P,SW19,1,1*%
%TO.N,C4*%
X274240000Y-95310000D03*
D16*
X275790000Y-95310000D03*
D17*
X277485000Y-95310000D03*
%TO.P,SW19,2,2*%
%TO.N,Net-(D19-A)*%
X265995000Y-93110000D03*
D16*
X267690000Y-93110000D03*
D15*
X269240000Y-93110000D03*
%TD*%
%TO.P,SW12,1,1*%
%TO.N,C3*%
X253920000Y-52130000D03*
D16*
X255470000Y-52130000D03*
D17*
X257165000Y-52130000D03*
%TO.P,SW12,2,2*%
%TO.N,Net-(D12-A)*%
X245675000Y-49930000D03*
D16*
X247370000Y-49930000D03*
D15*
X248920000Y-49930000D03*
%TD*%
D14*
%TO.P,D14,1,K*%
%TO.N,R3*%
X241300000Y-93090000D03*
%TO.P,D14,2,A*%
%TO.N,Net-(D14-A)*%
X241300000Y-89790000D03*
%TD*%
D15*
%TO.P,SW2,1,1*%
%TO.N,C1*%
X213280000Y-77530000D03*
D16*
X214830000Y-77530000D03*
D17*
X216525000Y-77530000D03*
%TO.P,SW2,2,2*%
%TO.N,Net-(D2-A)*%
X205035000Y-75330000D03*
D16*
X206730000Y-75330000D03*
D15*
X208280000Y-75330000D03*
%TD*%
D14*
%TO.P,D2,1,K*%
%TO.N,R2*%
X200660000Y-77850000D03*
%TO.P,D2,2,A*%
%TO.N,Net-(D2-A)*%
X200660000Y-74550000D03*
%TD*%
%TO.P,D27,1,K*%
%TO.N,R3*%
X302260000Y-98170000D03*
%TO.P,D27,2,A*%
%TO.N,Net-(D27-A)*%
X302260000Y-94870000D03*
%TD*%
D15*
%TO.P,SW33,1,1*%
%TO.N,C1*%
X143654873Y-130287595D03*
D21*
X142312534Y-129512595D03*
D22*
X140844621Y-128665095D03*
%TO.P,SW33,2,2*%
%TO.N,Net-(D33-A)*%
X149695252Y-136315351D03*
D23*
X148227339Y-135467851D03*
D15*
X146885000Y-134692851D03*
%TD*%
D24*
%TO.P,D5,1,K*%
%TO.N,R5*%
X173545000Y-133508942D03*
%TO.P,D5,2,A*%
%TO.N,Net-(D5-A)*%
X171895000Y-130651058D03*
%TD*%
D14*
%TO.P,D42,1,K*%
%TO.N,R3*%
X73660000Y-93090000D03*
%TO.P,D42,2,A*%
%TO.N,Net-(D42-A)*%
X73660000Y-89790000D03*
%TD*%
D15*
%TO.P,SW40,1,1*%
%TO.N,C3*%
X86280000Y-52130000D03*
D16*
X87830000Y-52130000D03*
D17*
X89525000Y-52130000D03*
%TO.P,SW40,2,2*%
%TO.N,Net-(D40-A)*%
X78035000Y-49930000D03*
D16*
X79730000Y-49930000D03*
D15*
X81280000Y-49930000D03*
%TD*%
D14*
%TO.P,D38,1,K*%
%TO.N,R4*%
X93980000Y-115950000D03*
%TO.P,D38,2,A*%
%TO.N,Net-(D38-A)*%
X93980000Y-112650000D03*
%TD*%
%TO.P,D50,1,K*%
%TO.N,R2*%
X33020000Y-77850000D03*
%TO.P,D50,2,A*%
%TO.N,Net-(D50-A)*%
X33020000Y-74550000D03*
%TD*%
%TO.P,D32,1,K*%
%TO.N,R4*%
X114300000Y-118490000D03*
%TO.P,D32,2,A*%
%TO.N,Net-(D32-A)*%
X114300000Y-115190000D03*
%TD*%
D15*
%TO.P,SW42,1,1*%
%TO.N,C3*%
X86280000Y-92770000D03*
D16*
X87830000Y-92770000D03*
D17*
X89525000Y-92770000D03*
%TO.P,SW42,2,2*%
%TO.N,Net-(D42-A)*%
X78035000Y-90570000D03*
D16*
X79730000Y-90570000D03*
D15*
X81280000Y-90570000D03*
%TD*%
%TO.P,SW20,1,1*%
%TO.N,C4*%
X274240000Y-115630000D03*
D16*
X275790000Y-115630000D03*
D17*
X277485000Y-115630000D03*
%TO.P,SW20,2,2*%
%TO.N,Net-(D20-A)*%
X265995000Y-113430000D03*
D16*
X267690000Y-113430000D03*
D15*
X269240000Y-113430000D03*
%TD*%
%TO.P,SW24,1,1*%
%TO.N,C5*%
X294560000Y-118170000D03*
D16*
X296110000Y-118170000D03*
D17*
X297805000Y-118170000D03*
%TO.P,SW24,2,2*%
%TO.N,Net-(D24-A)*%
X286315000Y-115970000D03*
D16*
X288010000Y-115970000D03*
D15*
X289560000Y-115970000D03*
%TD*%
%TO.P,SW9,1,1*%
%TO.N,C2*%
X233600000Y-95310000D03*
D16*
X235150000Y-95310000D03*
D17*
X236845000Y-95310000D03*
%TO.P,SW9,2,2*%
%TO.N,Net-(D9-A)*%
X225355000Y-93110000D03*
D16*
X227050000Y-93110000D03*
D15*
X228600000Y-93110000D03*
%TD*%
D25*
%TO.P,R4,1*%
%TO.N,BT_PIN*%
X52427500Y-144780000D03*
%TO.P,R4,2*%
%TO.N,GND*%
X54252500Y-144780000D03*
%TD*%
D15*
%TO.P,SW44,1,1*%
%TO.N,C3*%
X96440000Y-138490000D03*
D16*
X97990000Y-138490000D03*
D17*
X99685000Y-138490000D03*
%TO.P,SW44,2,2*%
%TO.N,Net-(D44-A)*%
X88195000Y-136290000D03*
D16*
X89890000Y-136290000D03*
D15*
X91440000Y-136290000D03*
%TD*%
%TO.P,SW46,1,1*%
%TO.N,C4*%
X65960000Y-74990000D03*
D16*
X67510000Y-74990000D03*
D17*
X69205000Y-74990000D03*
%TO.P,SW46,2,2*%
%TO.N,Net-(D46-A)*%
X57715000Y-72790000D03*
D16*
X59410000Y-72790000D03*
D15*
X60960000Y-72790000D03*
%TD*%
%TO.P,SW39,1,1*%
%TO.N,C2*%
X119300000Y-138490000D03*
D16*
X120850000Y-138490000D03*
D17*
X122545000Y-138490000D03*
%TO.P,SW39,2,2*%
%TO.N,Net-(D39-A)*%
X111055000Y-136290000D03*
D16*
X112750000Y-136290000D03*
D15*
X114300000Y-136290000D03*
%TD*%
%TO.P,SW16,1,1*%
%TO.N,C3*%
X246300000Y-135950000D03*
D16*
X247850000Y-135950000D03*
D17*
X249545000Y-135950000D03*
%TO.P,SW16,2,2*%
%TO.N,Net-(D16-A)*%
X238055000Y-133750000D03*
D16*
X239750000Y-133750000D03*
D15*
X241300000Y-133750000D03*
%TD*%
%TO.P,SW7,1,1*%
%TO.N,C2*%
X233600000Y-54670000D03*
D16*
X235150000Y-54670000D03*
D17*
X236845000Y-54670000D03*
%TO.P,SW7,2,2*%
%TO.N,Net-(D7-A)*%
X225355000Y-52470000D03*
D16*
X227050000Y-52470000D03*
D15*
X228600000Y-52470000D03*
%TD*%
D14*
%TO.P,D28,1,K*%
%TO.N,R4*%
X302260000Y-118490000D03*
%TO.P,D28,2,A*%
%TO.N,Net-(D28-A)*%
X302260000Y-115190000D03*
%TD*%
D15*
%TO.P,SW54,1,1*%
%TO.N,C6*%
X25320000Y-77530000D03*
D16*
X26870000Y-77530000D03*
D17*
X28565000Y-77530000D03*
%TO.P,SW54,2,2*%
%TO.N,Net-(D54-A)*%
X17075000Y-75330000D03*
D16*
X18770000Y-75330000D03*
D15*
X20320000Y-75330000D03*
%TD*%
D14*
%TO.P,D26,1,K*%
%TO.N,R2*%
X302260000Y-77850000D03*
%TO.P,D26,2,A*%
%TO.N,Net-(D26-A)*%
X302260000Y-74550000D03*
%TD*%
D15*
%TO.P,SW18,1,1*%
%TO.N,C4*%
X274240000Y-74990000D03*
D16*
X275790000Y-74990000D03*
D17*
X277485000Y-74990000D03*
%TO.P,SW18,2,2*%
%TO.N,Net-(D18-A)*%
X265995000Y-72790000D03*
D16*
X267690000Y-72790000D03*
D15*
X269240000Y-72790000D03*
%TD*%
D26*
%TO.P,D34,1,K*%
%TO.N,R6*%
X145605000Y-153511058D03*
%TO.P,D34,2,A*%
%TO.N,Net-(D34-A)*%
X143955000Y-156368942D03*
%TD*%
D15*
%TO.P,SW27,1,1*%
%TO.N,C6*%
X314880000Y-97850000D03*
D16*
X316430000Y-97850000D03*
D17*
X318125000Y-97850000D03*
%TO.P,SW27,2,2*%
%TO.N,Net-(D27-A)*%
X306635000Y-95650000D03*
D16*
X308330000Y-95650000D03*
D15*
X309880000Y-95650000D03*
%TD*%
%TO.P,SW41,1,1*%
%TO.N,C3*%
X86280000Y-72450000D03*
D16*
X87830000Y-72450000D03*
D17*
X89525000Y-72450000D03*
%TO.P,SW41,2,2*%
%TO.N,Net-(D41-A)*%
X78035000Y-70250000D03*
D16*
X79730000Y-70250000D03*
D15*
X81280000Y-70250000D03*
%TD*%
%TO.P,SW37,1,1*%
%TO.N,C2*%
X106600000Y-95310000D03*
D16*
X108150000Y-95310000D03*
D17*
X109845000Y-95310000D03*
%TO.P,SW37,2,2*%
%TO.N,Net-(D37-A)*%
X98355000Y-93110000D03*
D16*
X100050000Y-93110000D03*
D15*
X101600000Y-93110000D03*
%TD*%
%TO.P,SW55,1,1*%
%TO.N,C6*%
X25320000Y-97850000D03*
D16*
X26870000Y-97850000D03*
D17*
X28565000Y-97850000D03*
%TO.P,SW55,2,2*%
%TO.N,Net-(D55-A)*%
X17075000Y-95650000D03*
D16*
X18770000Y-95650000D03*
D15*
X20320000Y-95650000D03*
%TD*%
D14*
%TO.P,D23,1,K*%
%TO.N,R3*%
X281940000Y-98170000D03*
%TO.P,D23,2,A*%
%TO.N,Net-(D23-A)*%
X281940000Y-94870000D03*
%TD*%
%TO.P,D21,1,K*%
%TO.N,R1*%
X281940000Y-57530000D03*
%TO.P,D21,2,A*%
%TO.N,Net-(D21-A)*%
X281940000Y-54230000D03*
%TD*%
D15*
%TO.P,SW23,1,1*%
%TO.N,C5*%
X294560000Y-97850000D03*
D16*
X296110000Y-97850000D03*
D17*
X297805000Y-97850000D03*
%TO.P,SW23,2,2*%
%TO.N,Net-(D23-A)*%
X286315000Y-95650000D03*
D16*
X288010000Y-95650000D03*
D15*
X289560000Y-95650000D03*
%TD*%
%TO.P,SW13,1,1*%
%TO.N,C3*%
X253920000Y-72450000D03*
D16*
X255470000Y-72450000D03*
D17*
X257165000Y-72450000D03*
%TO.P,SW13,2,2*%
%TO.N,Net-(D13-A)*%
X245675000Y-70250000D03*
D16*
X247370000Y-70250000D03*
D15*
X248920000Y-70250000D03*
%TD*%
D14*
%TO.P,D24,1,K*%
%TO.N,R4*%
X281940000Y-118490000D03*
%TO.P,D24,2,A*%
%TO.N,Net-(D24-A)*%
X281940000Y-115190000D03*
%TD*%
D15*
%TO.P,SW17,1,1*%
%TO.N,C4*%
X274240000Y-54670000D03*
D16*
X275790000Y-54670000D03*
D17*
X277485000Y-54670000D03*
%TO.P,SW17,2,2*%
%TO.N,Net-(D17-A)*%
X265995000Y-52470000D03*
D16*
X267690000Y-52470000D03*
D15*
X269240000Y-52470000D03*
%TD*%
D14*
%TO.P,D13,1,K*%
%TO.N,R2*%
X241300000Y-72770000D03*
%TO.P,D13,2,A*%
%TO.N,Net-(D13-A)*%
X241300000Y-69470000D03*
%TD*%
%TO.P,D3,1,K*%
%TO.N,R3*%
X200660000Y-98170000D03*
%TO.P,D3,2,A*%
%TO.N,Net-(D3-A)*%
X200660000Y-94870000D03*
%TD*%
%TO.P,D16,1,K*%
%TO.N,R5*%
X233680000Y-136270000D03*
%TO.P,D16,2,A*%
%TO.N,Net-(D16-A)*%
X233680000Y-132970000D03*
%TD*%
%TO.P,D15,1,K*%
%TO.N,R4*%
X241300000Y-113410000D03*
%TO.P,D15,2,A*%
%TO.N,Net-(D15-A)*%
X241300000Y-110110000D03*
%TD*%
D15*
%TO.P,SW1,1,1*%
%TO.N,C1*%
X213280000Y-57210000D03*
D16*
X214830000Y-57210000D03*
D17*
X216525000Y-57210000D03*
%TO.P,SW1,2,2*%
%TO.N,Net-(D1-A)*%
X205035000Y-55010000D03*
D16*
X206730000Y-55010000D03*
D15*
X208280000Y-55010000D03*
%TD*%
%TO.P,SW38,1,1*%
%TO.N,C2*%
X106600000Y-115630000D03*
D16*
X108150000Y-115630000D03*
D17*
X109845000Y-115630000D03*
%TO.P,SW38,2,2*%
%TO.N,Net-(D38-A)*%
X98355000Y-113430000D03*
D16*
X100050000Y-113430000D03*
D15*
X101600000Y-113430000D03*
%TD*%
D14*
%TO.P,D37,1,K*%
%TO.N,R3*%
X93980000Y-95630000D03*
%TO.P,D37,2,A*%
%TO.N,Net-(D37-A)*%
X93980000Y-92330000D03*
%TD*%
D15*
%TO.P,SW45,1,1*%
%TO.N,C4*%
X65960000Y-54670000D03*
D16*
X67510000Y-54670000D03*
D17*
X69205000Y-54670000D03*
%TO.P,SW45,2,2*%
%TO.N,Net-(D45-A)*%
X57715000Y-52470000D03*
D16*
X59410000Y-52470000D03*
D15*
X60960000Y-52470000D03*
%TD*%
%TO.P,SW52,1,1*%
%TO.N,C5*%
X45640000Y-118170000D03*
D16*
X47190000Y-118170000D03*
D17*
X48885000Y-118170000D03*
%TO.P,SW52,2,2*%
%TO.N,Net-(D52-A)*%
X37395000Y-115970000D03*
D16*
X39090000Y-115970000D03*
D15*
X40640000Y-115970000D03*
%TD*%
%TO.P,SW43,1,1*%
%TO.N,C3*%
X86280000Y-113090000D03*
D16*
X87830000Y-113090000D03*
D17*
X89525000Y-113090000D03*
%TO.P,SW43,2,2*%
%TO.N,Net-(D43-A)*%
X78035000Y-110890000D03*
D16*
X79730000Y-110890000D03*
D15*
X81280000Y-110890000D03*
%TD*%
%TO.P,SW53,1,1*%
%TO.N,C6*%
X25320000Y-57210000D03*
D16*
X26870000Y-57210000D03*
D17*
X28565000Y-57210000D03*
%TO.P,SW53,2,2*%
%TO.N,Net-(D53-A)*%
X17075000Y-55010000D03*
D16*
X18770000Y-55010000D03*
D15*
X20320000Y-55010000D03*
%TD*%
%TO.P,SW25,1,1*%
%TO.N,C6*%
X314880000Y-57210000D03*
D16*
X316430000Y-57210000D03*
D17*
X318125000Y-57210000D03*
%TO.P,SW25,2,2*%
%TO.N,Net-(D25-A)*%
X306635000Y-55010000D03*
D16*
X308330000Y-55010000D03*
D15*
X309880000Y-55010000D03*
%TD*%
D14*
%TO.P,D51,1,K*%
%TO.N,R3*%
X33020000Y-98170000D03*
%TO.P,D51,2,A*%
%TO.N,Net-(D51-A)*%
X33020000Y-94870000D03*
%TD*%
D15*
%TO.P,SW35,1,1*%
%TO.N,C2*%
X106600000Y-54670000D03*
D16*
X108150000Y-54670000D03*
D17*
X109845000Y-54670000D03*
%TO.P,SW35,2,2*%
%TO.N,Net-(D35-A)*%
X98355000Y-52470000D03*
D16*
X100050000Y-52470000D03*
D15*
X101600000Y-52470000D03*
%TD*%
D26*
%TO.P,D33,1,K*%
%TO.N,R5*%
X155765000Y-135731058D03*
%TO.P,D33,2,A*%
%TO.N,Net-(D33-A)*%
X154115000Y-138588942D03*
%TD*%
D14*
%TO.P,D4,1,K*%
%TO.N,R4*%
X200660000Y-118490000D03*
%TO.P,D4,2,A*%
%TO.N,Net-(D4-A)*%
X200660000Y-115190000D03*
%TD*%
D15*
%TO.P,SW21,1,1*%
%TO.N,C5*%
X294560000Y-57210000D03*
D16*
X296110000Y-57210000D03*
D17*
X297805000Y-57210000D03*
%TO.P,SW21,2,2*%
%TO.N,Net-(D21-A)*%
X286315000Y-55010000D03*
D16*
X288010000Y-55010000D03*
D15*
X289560000Y-55010000D03*
%TD*%
%TO.P,SW50,1,1*%
%TO.N,C5*%
X45640000Y-77530000D03*
D16*
X47190000Y-77530000D03*
D17*
X48885000Y-77530000D03*
%TO.P,SW50,2,2*%
%TO.N,Net-(D50-A)*%
X37395000Y-75330000D03*
D16*
X39090000Y-75330000D03*
D15*
X40640000Y-75330000D03*
%TD*%
%TO.P,SW5,1,1*%
%TO.N,C1*%
X182795127Y-123792405D03*
D18*
X184137466Y-123017406D03*
D19*
X185605379Y-122169906D03*
%TO.P,SW5,2,2*%
%TO.N,Net-(D5-A)*%
X174554748Y-126009649D03*
D20*
X176022662Y-125162149D03*
D15*
X177365000Y-124387149D03*
%TD*%
D25*
%TO.P,R1,1*%
%TO.N,BT_PIN*%
X278487500Y-144780000D03*
%TO.P,R1,2*%
%TO.N,VBAT*%
X280312500Y-144780000D03*
%TD*%
%TO.P,R3,1*%
%TO.N,BT_PIN*%
X53261250Y-149066250D03*
%TO.P,R3,2*%
%TO.N,VBAT*%
X55086250Y-149066250D03*
%TD*%
D15*
%TO.P,SW47,1,1*%
%TO.N,C4*%
X65960000Y-95310000D03*
D16*
X67510000Y-95310000D03*
D17*
X69205000Y-95310000D03*
%TO.P,SW47,2,2*%
%TO.N,Net-(D47-A)*%
X57715000Y-93110000D03*
D16*
X59410000Y-93110000D03*
D15*
X60960000Y-93110000D03*
%TD*%
D14*
%TO.P,D19,1,K*%
%TO.N,R3*%
X261620000Y-95630000D03*
%TO.P,D19,2,A*%
%TO.N,Net-(D19-A)*%
X261620000Y-92330000D03*
%TD*%
%TO.P,D10,1,K*%
%TO.N,R4*%
X220980000Y-115950000D03*
%TO.P,D10,2,A*%
%TO.N,Net-(D10-A)*%
X220980000Y-112650000D03*
%TD*%
D15*
%TO.P,SW56,1,1*%
%TO.N,C6*%
X25320000Y-118170000D03*
D16*
X26870000Y-118170000D03*
D17*
X28565000Y-118170000D03*
%TO.P,SW56,2,2*%
%TO.N,Net-(D56-A)*%
X17075000Y-115970000D03*
D16*
X18770000Y-115970000D03*
D15*
X20320000Y-115970000D03*
%TD*%
D14*
%TO.P,D49,1,K*%
%TO.N,R1*%
X33020000Y-57530000D03*
%TO.P,D49,2,A*%
%TO.N,Net-(D49-A)*%
X33020000Y-54230000D03*
%TD*%
%TO.P,D46,1,K*%
%TO.N,R2*%
X53340000Y-75310000D03*
%TO.P,D46,2,A*%
%TO.N,Net-(D46-A)*%
X53340000Y-72010000D03*
%TD*%
D15*
%TO.P,SW34,1,1*%
%TO.N,C1*%
X133494873Y-148067595D03*
D21*
X132152534Y-147292595D03*
D22*
X130684621Y-146445095D03*
%TO.P,SW34,2,2*%
%TO.N,Net-(D34-A)*%
X139535252Y-154095351D03*
D23*
X138067339Y-153247851D03*
D15*
X136725000Y-152472851D03*
%TD*%
D14*
%TO.P,D39,1,K*%
%TO.N,R5*%
X106680000Y-138810000D03*
%TO.P,D39,2,A*%
%TO.N,Net-(D39-A)*%
X106680000Y-135510000D03*
%TD*%
%TO.P,D18,1,K*%
%TO.N,R2*%
X261620000Y-75310000D03*
%TO.P,D18,2,A*%
%TO.N,Net-(D18-A)*%
X261620000Y-72010000D03*
%TD*%
%TO.P,D35,1,K*%
%TO.N,R1*%
X93980000Y-54990000D03*
%TO.P,D35,2,A*%
%TO.N,Net-(D35-A)*%
X93980000Y-51690000D03*
%TD*%
D24*
%TO.P,D6,1,K*%
%TO.N,R6*%
X183705000Y-151288942D03*
%TO.P,D6,2,A*%
%TO.N,Net-(D6-A)*%
X182055000Y-148431058D03*
%TD*%
D14*
%TO.P,D45,1,K*%
%TO.N,R1*%
X53340000Y-54990000D03*
%TO.P,D45,2,A*%
%TO.N,Net-(D45-A)*%
X53340000Y-51690000D03*
%TD*%
%TO.P,D48,1,K*%
%TO.N,R4*%
X53340000Y-115950000D03*
%TO.P,D48,2,A*%
%TO.N,Net-(D48-A)*%
X53340000Y-112650000D03*
%TD*%
%TO.P,D56,1,K*%
%TO.N,R4*%
X12700000Y-118490000D03*
%TO.P,D56,2,A*%
%TO.N,Net-(D56-A)*%
X12700000Y-115190000D03*
%TD*%
D15*
%TO.P,SW8,1,1*%
%TO.N,C2*%
X233600000Y-74990000D03*
D16*
X235150000Y-74990000D03*
D17*
X236845000Y-74990000D03*
%TO.P,SW8,2,2*%
%TO.N,Net-(D8-A)*%
X225355000Y-72790000D03*
D16*
X227050000Y-72790000D03*
D15*
X228600000Y-72790000D03*
%TD*%
%TO.P,SW4,1,1*%
%TO.N,C1*%
X213280000Y-118170000D03*
D16*
X214830000Y-118170000D03*
D17*
X216525000Y-118170000D03*
%TO.P,SW4,2,2*%
%TO.N,Net-(D4-A)*%
X205035000Y-115970000D03*
D16*
X206730000Y-115970000D03*
D15*
X208280000Y-115970000D03*
%TD*%
D25*
%TO.P,R2,1*%
%TO.N,BT_PIN*%
X278487500Y-137160000D03*
%TO.P,R2,2*%
%TO.N,GND*%
X280312500Y-137160000D03*
%TD*%
D14*
%TO.P,D55,1,K*%
%TO.N,R3*%
X12700000Y-98170000D03*
%TO.P,D55,2,A*%
%TO.N,Net-(D55-A)*%
X12700000Y-94870000D03*
%TD*%
%TO.P,D7,1,K*%
%TO.N,R1*%
X220980000Y-54990000D03*
%TO.P,D7,2,A*%
%TO.N,Net-(D7-A)*%
X220980000Y-51690000D03*
%TD*%
%TO.P,D31,1,K*%
%TO.N,R3*%
X114300000Y-98170000D03*
%TO.P,D31,2,A*%
%TO.N,Net-(D31-A)*%
X114300000Y-94870000D03*
%TD*%
D15*
%TO.P,SW51,1,1*%
%TO.N,C5*%
X45640000Y-97850000D03*
D16*
X47190000Y-97850000D03*
D17*
X48885000Y-97850000D03*
%TO.P,SW51,2,2*%
%TO.N,Net-(D51-A)*%
X37395000Y-95650000D03*
D16*
X39090000Y-95650000D03*
D15*
X40640000Y-95650000D03*
%TD*%
D14*
%TO.P,D9,1,K*%
%TO.N,R3*%
X220980000Y-95630000D03*
%TO.P,D9,2,A*%
%TO.N,Net-(D9-A)*%
X220980000Y-92330000D03*
%TD*%
D15*
%TO.P,SW10,1,1*%
%TO.N,C2*%
X233600000Y-115630000D03*
D16*
X235150000Y-115630000D03*
D17*
X236845000Y-115630000D03*
%TO.P,SW10,2,2*%
%TO.N,Net-(D10-A)*%
X225355000Y-113430000D03*
D16*
X227050000Y-113430000D03*
D15*
X228600000Y-113430000D03*
%TD*%
%TO.P,SW30,1,1*%
%TO.N,C1*%
X126920000Y-77530000D03*
D16*
X128470000Y-77530000D03*
D17*
X130165000Y-77530000D03*
%TO.P,SW30,2,2*%
%TO.N,Net-(D30-A)*%
X118675000Y-75330000D03*
D16*
X120370000Y-75330000D03*
D15*
X121920000Y-75330000D03*
%TD*%
D27*
%TO.N,R4*%
X312821000Y-147721000D02*
X306372529Y-147721000D01*
X21711869Y-120121000D02*
X20080869Y-118490000D01*
X105791869Y-117581000D02*
X104160869Y-115950000D01*
X306372529Y-147721000D02*
X302191000Y-151902529D01*
X104160869Y-115950000D02*
X93980000Y-115950000D01*
X281940000Y-118490000D02*
X291480869Y-118490000D01*
X73660000Y-113410000D02*
X64069000Y-113410000D01*
X271800869Y-115950000D02*
X273431869Y-117581000D01*
X114300000Y-118490000D02*
X113391000Y-117581000D01*
X281031000Y-117581000D02*
X281940000Y-118490000D01*
X43419131Y-115950000D02*
X40879131Y-118490000D01*
X253111869Y-115041000D02*
X260711000Y-115041000D01*
X12700000Y-118490000D02*
X13989448Y-118490000D01*
X233060869Y-113410000D02*
X241300000Y-113410000D01*
X61529000Y-115950000D02*
X53340000Y-115950000D01*
X200660000Y-118490000D02*
X210200869Y-118490000D01*
X212740869Y-115950000D02*
X220980000Y-115950000D01*
X13300000Y-118490000D02*
X30769000Y-135959000D01*
X291480869Y-118490000D02*
X293751869Y-116219000D01*
X210200869Y-118490000D02*
X212740869Y-115950000D01*
X113391000Y-117581000D02*
X105791869Y-117581000D01*
X312821000Y-142240000D02*
X312821000Y-147721000D01*
X40879131Y-118490000D02*
X33020000Y-118490000D01*
X293751869Y-116219000D02*
X299989000Y-116219000D01*
X83840869Y-113410000D02*
X73660000Y-113410000D01*
X302260000Y-118490000D02*
X302260000Y-126300736D01*
X12700000Y-118490000D02*
X13300000Y-118490000D01*
X251480869Y-113410000D02*
X253111869Y-115041000D01*
X273431869Y-117581000D02*
X281031000Y-117581000D01*
X241300000Y-113410000D02*
X251480869Y-113410000D01*
X30769000Y-135959000D02*
X33089000Y-135959000D01*
X260711000Y-115041000D02*
X261620000Y-115950000D01*
X85471869Y-115041000D02*
X83840869Y-113410000D01*
X64069000Y-113410000D02*
X61529000Y-115950000D01*
X312420000Y-141839000D02*
X312821000Y-142240000D01*
X302260000Y-126300736D02*
X312420000Y-136460736D01*
X261620000Y-115950000D02*
X271800869Y-115950000D01*
X299651000Y-153601000D02*
X298450000Y-152400000D01*
X299989000Y-116219000D02*
X300958000Y-117188000D01*
X302191000Y-151902529D02*
X302191000Y-152897471D01*
X301487471Y-153601000D02*
X299651000Y-153601000D01*
X33020000Y-118490000D02*
X31389000Y-120121000D01*
X220980000Y-115950000D02*
X230520869Y-115950000D01*
X312420000Y-136460736D02*
X312420000Y-141839000D01*
X302191000Y-152897471D02*
X301487471Y-153601000D01*
X230520869Y-115950000D02*
X233060869Y-113410000D01*
X53340000Y-115950000D02*
X43419131Y-115950000D01*
X93071000Y-115041000D02*
X85471869Y-115041000D01*
X20080869Y-118490000D02*
X12700000Y-118490000D01*
X31389000Y-120121000D02*
X21711869Y-120121000D01*
X93980000Y-115950000D02*
X93071000Y-115041000D01*
X33089000Y-135959000D02*
X34290000Y-137160000D01*
%TO.N,C1*%
X213280000Y-118170000D02*
X212209000Y-119241000D01*
%TO.N,R3*%
X113391000Y-97261000D02*
X114300000Y-98170000D01*
X241900000Y-93090000D02*
X247381000Y-98571000D01*
X104160869Y-95630000D02*
X105791869Y-97261000D01*
X111399448Y-129540000D02*
X38100000Y-129540000D01*
X31389000Y-99801000D02*
X33020000Y-98170000D01*
X210200869Y-98170000D02*
X212740869Y-95630000D01*
X230520869Y-95630000D02*
X233060869Y-93090000D01*
X61850000Y-95630000D02*
X64390000Y-93090000D01*
X309949000Y-144711000D02*
X307340000Y-147320000D01*
X306070000Y-147320000D02*
X300990000Y-152400000D01*
X302260000Y-98170000D02*
X301359000Y-99071000D01*
X38100000Y-129540000D02*
X35491000Y-132149000D01*
X309949000Y-136800529D02*
X309949000Y-144711000D01*
X45100869Y-95630000D02*
X53340000Y-95630000D01*
X300629000Y-99801000D02*
X302260000Y-98170000D01*
X24511869Y-99801000D02*
X31389000Y-99801000D01*
X123871000Y-110900000D02*
X123871000Y-117068448D01*
X292120869Y-98170000D02*
X293751869Y-99801000D01*
X200660000Y-98170000D02*
X210200869Y-98170000D01*
X42560869Y-98170000D02*
X45100869Y-95630000D01*
X22880869Y-98170000D02*
X24511869Y-99801000D01*
X73660000Y-93090000D02*
X83840869Y-93090000D01*
X105791869Y-97261000D02*
X113391000Y-97261000D01*
X212740869Y-95630000D02*
X220980000Y-95630000D01*
X258679000Y-98571000D02*
X261620000Y-95630000D01*
X93071000Y-94721000D02*
X93980000Y-95630000D01*
X123871000Y-117068448D02*
X111399448Y-129540000D01*
X114300000Y-98170000D02*
X114300000Y-101329000D01*
X35491000Y-137657471D02*
X34787471Y-138361000D01*
X247381000Y-98571000D02*
X258679000Y-98571000D01*
X281031000Y-97261000D02*
X281940000Y-98170000D01*
X34787471Y-138361000D02*
X32951000Y-138361000D01*
X93980000Y-95630000D02*
X104160869Y-95630000D01*
X12700000Y-98170000D02*
X22880869Y-98170000D01*
X83840869Y-93090000D02*
X85471869Y-94721000D01*
X38100000Y-129540000D02*
X35988471Y-129540000D01*
X33020000Y-98170000D02*
X42560869Y-98170000D01*
X64390000Y-93090000D02*
X73660000Y-93090000D01*
X35491000Y-132149000D02*
X35491000Y-137657471D01*
X114300000Y-101329000D02*
X123871000Y-110900000D01*
X281940000Y-98170000D02*
X292120869Y-98170000D01*
X261620000Y-95630000D02*
X271160869Y-95630000D01*
X233060869Y-93090000D02*
X241300000Y-93090000D01*
X32951000Y-138361000D02*
X31750000Y-137160000D01*
X271160869Y-95630000D02*
X272791869Y-97261000D01*
X272791869Y-97261000D02*
X281031000Y-97261000D01*
X301359000Y-128210529D02*
X309949000Y-136800529D01*
X220980000Y-95630000D02*
X230520869Y-95630000D01*
X241300000Y-93090000D02*
X241900000Y-93090000D01*
X301359000Y-99071000D02*
X301359000Y-128210529D01*
X293751869Y-99801000D02*
X300629000Y-99801000D01*
X53340000Y-95630000D02*
X61850000Y-95630000D01*
X85471869Y-94721000D02*
X93071000Y-94721000D01*
X307340000Y-147320000D02*
X306070000Y-147320000D01*
%TO.N,R2*%
X42560869Y-77850000D02*
X45100869Y-75310000D01*
X260711000Y-74401000D02*
X261620000Y-75310000D01*
X273431869Y-76941000D02*
X281031000Y-76941000D01*
X12700000Y-77850000D02*
X22880869Y-77850000D01*
X302260000Y-83508000D02*
X312528000Y-93776000D01*
X73660000Y-72770000D02*
X82646470Y-72770000D01*
X62880869Y-75310000D02*
X65420869Y-72770000D01*
X315029000Y-147251000D02*
X312420000Y-149860000D01*
X151402147Y-134820257D02*
X156046149Y-134820257D01*
X33020000Y-77850000D02*
X42560869Y-77850000D01*
X22880869Y-77850000D02*
X24511869Y-79481000D01*
X120297470Y-143441000D02*
X119302530Y-143441000D01*
X291480869Y-77850000D02*
X293751869Y-75579000D01*
X233060869Y-72770000D02*
X241300000Y-72770000D01*
X121001000Y-142737470D02*
X120297470Y-143441000D01*
X293751869Y-75579000D02*
X299989000Y-75579000D01*
X53340000Y-75310000D02*
X62880869Y-75310000D01*
X115422530Y-139561000D02*
X106496100Y-139561000D01*
X312528000Y-93776000D02*
X312528000Y-131759529D01*
X31389000Y-79481000D02*
X33020000Y-77850000D01*
X210200869Y-77850000D02*
X212740869Y-75310000D01*
X93669000Y-74999000D02*
X93980000Y-75310000D01*
X108639110Y-83510890D02*
X108639110Y-91159000D01*
X230520869Y-75310000D02*
X233060869Y-72770000D01*
X253111869Y-74401000D02*
X260711000Y-74401000D01*
X251480869Y-72770000D02*
X253111869Y-74401000D01*
X113989000Y-77539000D02*
X114300000Y-77850000D01*
X45100869Y-75310000D02*
X53340000Y-75310000D01*
X115201000Y-98619110D02*
X151402147Y-134820257D01*
X24511869Y-79481000D02*
X31389000Y-79481000D01*
X151875522Y-142737470D02*
X121001000Y-142737470D01*
X302260000Y-77850000D02*
X302260000Y-83508000D01*
X241300000Y-72770000D02*
X251480869Y-72770000D01*
X315029000Y-134260529D02*
X315029000Y-147251000D01*
X200660000Y-77850000D02*
X210200869Y-77850000D01*
X299989000Y-75579000D02*
X302260000Y-77850000D01*
X271800869Y-75310000D02*
X273431869Y-76941000D01*
X105195470Y-77539000D02*
X113989000Y-77539000D01*
X261620000Y-75310000D02*
X271800869Y-75310000D01*
X312528000Y-131759529D02*
X315029000Y-134260529D01*
X115201000Y-97720890D02*
X115201000Y-98619110D01*
X95465769Y-140842000D02*
X94184769Y-139561000D01*
X108639110Y-91159000D02*
X115201000Y-97720890D01*
X306070000Y-149860000D02*
X303530000Y-152400000D01*
X94184769Y-139561000D02*
X83220890Y-139561000D01*
X105215100Y-140842000D02*
X95465769Y-140842000D01*
X281940000Y-77850000D02*
X291480869Y-77850000D01*
X84875470Y-74999000D02*
X93669000Y-74999000D01*
X156730705Y-135504813D02*
X156730705Y-137882287D01*
X312420000Y-149860000D02*
X306070000Y-149860000D01*
X119302530Y-143441000D02*
X115422530Y-139561000D01*
X114300000Y-77850000D02*
X108639110Y-83510890D01*
X102966470Y-75310000D02*
X105195470Y-77539000D01*
X82646470Y-72770000D02*
X84875470Y-74999000D01*
X47292529Y-135021000D02*
X42613529Y-139700000D01*
X220980000Y-75310000D02*
X230520869Y-75310000D01*
X212740869Y-75310000D02*
X220980000Y-75310000D01*
X83220890Y-139561000D02*
X78680890Y-135021000D01*
X106496100Y-139561000D02*
X105215100Y-140842000D01*
X65420869Y-72770000D02*
X73660000Y-72770000D01*
X156046149Y-134820257D02*
X156730705Y-135504813D01*
X281031000Y-76941000D02*
X281940000Y-77850000D01*
X156730705Y-137882287D02*
X151875522Y-142737470D01*
X42613529Y-139700000D02*
X31750000Y-139700000D01*
X93980000Y-75310000D02*
X102966470Y-75310000D01*
X78680890Y-135021000D02*
X47292529Y-135021000D01*
X31750000Y-139700000D02*
X29210000Y-137160000D01*
%TO.N,C2*%
X235150000Y-74990000D02*
X235301000Y-75141000D01*
X235301000Y-93609000D02*
X233600000Y-95310000D01*
X224990000Y-138490000D02*
X225831000Y-137649000D01*
%TO.N,GND*%
X281513500Y-135959000D02*
X306567471Y-135959000D01*
X308112529Y-138361000D02*
X309107471Y-138361000D01*
X306567471Y-135959000D02*
X307340000Y-136731529D01*
X19050000Y-152400000D02*
X21590000Y-152400000D01*
X309107471Y-138361000D02*
X309548000Y-137920471D01*
X23462400Y-150527600D02*
X21590000Y-152400000D01*
X307340000Y-136731529D02*
X307340000Y-137588471D01*
X307340000Y-137588471D02*
X308112529Y-138361000D01*
X54252500Y-144780000D02*
X54252500Y-149573660D01*
X53298560Y-150527600D02*
X23462400Y-150527600D01*
X280312500Y-137160000D02*
X281513500Y-135959000D01*
X54252500Y-149573660D02*
X53298560Y-150527600D01*
%TO.N,R5*%
X79630000Y-134620000D02*
X39370000Y-134620000D01*
X210820000Y-138810000D02*
X220360869Y-138810000D01*
X293370000Y-149860000D02*
X295910000Y-152400000D01*
X222900869Y-136270000D02*
X233680000Y-136270000D01*
X247719000Y-138499000D02*
X259080000Y-149860000D01*
X155765000Y-138280892D02*
X155765000Y-135731058D01*
X220360869Y-138810000D02*
X222900869Y-136270000D01*
X244895470Y-138499000D02*
X247719000Y-138499000D01*
X173545000Y-133508942D02*
X205518942Y-133508942D01*
X106680000Y-138810000D02*
X116860869Y-138810000D01*
X95631869Y-140441000D02*
X105049000Y-140441000D01*
X118831340Y-140780471D02*
X153265421Y-140780471D01*
X233680000Y-136270000D02*
X242666470Y-136270000D01*
X94000869Y-138810000D02*
X95631869Y-140441000D01*
X83820000Y-138810000D02*
X94000869Y-138810000D01*
X105049000Y-140441000D02*
X106680000Y-138810000D01*
X83820000Y-138810000D02*
X79630000Y-134620000D01*
X259080000Y-149860000D02*
X293370000Y-149860000D01*
X39370000Y-134620000D02*
X37113550Y-136876450D01*
X116860869Y-138810000D02*
X118831340Y-140780471D01*
X205518942Y-133508942D02*
X210820000Y-138810000D01*
X153265421Y-140780471D02*
X155765000Y-138280892D01*
X242666470Y-136270000D02*
X244895470Y-138499000D01*
%TO.N,R1*%
X24130000Y-134620000D02*
X26670000Y-137160000D01*
X317500000Y-133782736D02*
X317500000Y-149860000D01*
X85471869Y-54081000D02*
X93071000Y-54081000D01*
X11799000Y-133719000D02*
X12700000Y-134620000D01*
X233060869Y-52450000D02*
X241300000Y-52450000D01*
X241300000Y-52450000D02*
X250840869Y-52450000D01*
X300629000Y-59161000D02*
X302260000Y-57530000D01*
X12700000Y-57530000D02*
X11799000Y-58431000D01*
X30791000Y-59759000D02*
X33020000Y-57530000D01*
X268710552Y-54990000D02*
X270939552Y-57219000D01*
X104160869Y-54990000D02*
X105791869Y-56621000D01*
X312929000Y-129211736D02*
X317500000Y-133782736D01*
X302260000Y-57530000D02*
X302260000Y-62879000D01*
X292120869Y-57530000D02*
X293751869Y-59161000D01*
X317500000Y-149860000D02*
X312987100Y-149860000D01*
X93980000Y-54990000D02*
X104160869Y-54990000D01*
X12700000Y-134620000D02*
X24130000Y-134620000D01*
X65420869Y-52450000D02*
X73660000Y-52450000D01*
X105791869Y-56621000D02*
X113391000Y-56621000D01*
X281940000Y-57530000D02*
X292120869Y-57530000D01*
X260711000Y-54081000D02*
X261620000Y-54990000D01*
X23915470Y-59759000D02*
X30791000Y-59759000D01*
X281629000Y-57219000D02*
X281940000Y-57530000D01*
X209930000Y-57530000D02*
X212470000Y-54990000D01*
X302260000Y-62879000D02*
X312929000Y-73548000D01*
X312586100Y-150261000D02*
X308209000Y-150261000D01*
X73660000Y-52450000D02*
X83840869Y-52450000D01*
X83840869Y-52450000D02*
X85471869Y-54081000D01*
X45100869Y-54990000D02*
X53340000Y-54990000D01*
X113391000Y-56621000D02*
X114300000Y-57530000D01*
X53340000Y-54990000D02*
X62880869Y-54990000D01*
X212470000Y-54990000D02*
X220980000Y-54990000D01*
X12700000Y-57530000D02*
X21686470Y-57530000D01*
X93071000Y-54081000D02*
X93980000Y-54990000D01*
X312987100Y-149860000D02*
X312586100Y-150261000D01*
X293751869Y-59161000D02*
X300629000Y-59161000D01*
X261620000Y-54990000D02*
X268710552Y-54990000D01*
X308209000Y-150261000D02*
X306070000Y-152400000D01*
X200660000Y-57530000D02*
X209930000Y-57530000D01*
X42560869Y-57530000D02*
X45100869Y-54990000D01*
X230520869Y-54990000D02*
X233060869Y-52450000D01*
X252471869Y-54081000D02*
X260711000Y-54081000D01*
X21686470Y-57530000D02*
X23915470Y-59759000D01*
X312929000Y-73548000D02*
X312929000Y-129211736D01*
X33020000Y-57530000D02*
X42560869Y-57530000D01*
X62880869Y-54990000D02*
X65420869Y-52450000D01*
X270939552Y-57219000D02*
X281629000Y-57219000D01*
X11799000Y-58431000D02*
X11799000Y-133719000D01*
X250840869Y-52450000D02*
X252471869Y-54081000D01*
X220980000Y-54990000D02*
X230520869Y-54990000D01*
%TO.N,Net-(D27-A)*%
X302260000Y-94870000D02*
X309100000Y-94870000D01*
X309100000Y-94870000D02*
X309880000Y-95650000D01*
%TO.N,Net-(D28-A)*%
X302260000Y-115190000D02*
X307550000Y-115190000D01*
X307550000Y-115190000D02*
X308330000Y-115970000D01*
%TO.N,Net-(D29-A)*%
X114300000Y-54230000D02*
X121140000Y-54230000D01*
X121140000Y-54230000D02*
X121920000Y-55010000D01*
%TO.N,Net-(D30-A)*%
X114300000Y-74550000D02*
X119590000Y-74550000D01*
X119590000Y-74550000D02*
X120370000Y-75330000D01*
%TO.N,Net-(D31-A)*%
X114300000Y-94870000D02*
X119590000Y-94870000D01*
X119590000Y-94870000D02*
X120370000Y-95650000D01*
%TO.N,Net-(D32-A)*%
X114300000Y-115190000D02*
X121140000Y-115190000D01*
X121140000Y-115190000D02*
X121920000Y-115970000D01*
%TO.N,Net-(D33-A)*%
X150218909Y-134692851D02*
X154115000Y-138588942D01*
X146885000Y-134692851D02*
X150218909Y-134692851D01*
%TO.N,Net-(D34-A)*%
X140058909Y-152472851D02*
X143955000Y-156368942D01*
X136725000Y-152472851D02*
X140058909Y-152472851D01*
%TO.N,Net-(D35-A)*%
X100820000Y-51690000D02*
X101600000Y-52470000D01*
X93980000Y-51690000D02*
X100820000Y-51690000D01*
%TO.N,Net-(D36-A)*%
X93980000Y-72010000D02*
X99270000Y-72010000D01*
X99270000Y-72010000D02*
X100050000Y-72790000D01*
%TO.N,Net-(D37-A)*%
X93980000Y-92330000D02*
X99270000Y-92330000D01*
X99270000Y-92330000D02*
X100050000Y-93110000D01*
%TO.N,Net-(D38-A)*%
X100820000Y-112650000D02*
X101600000Y-113430000D01*
X93980000Y-112650000D02*
X100820000Y-112650000D01*
%TO.N,Net-(D39-A)*%
X114300000Y-136290000D02*
X107460000Y-136290000D01*
X107460000Y-136290000D02*
X106680000Y-135510000D01*
%TO.N,Net-(D40-A)*%
X78950000Y-49150000D02*
X79730000Y-49930000D01*
X73660000Y-49150000D02*
X78950000Y-49150000D01*
%TO.N,Net-(D41-A)*%
X73660000Y-69470000D02*
X80500000Y-69470000D01*
X80500000Y-69470000D02*
X81280000Y-70250000D01*
%TO.N,Net-(D42-A)*%
X73660000Y-89790000D02*
X78950000Y-89790000D01*
X78950000Y-89790000D02*
X79730000Y-90570000D01*
%TO.N,Net-(D43-A)*%
X73660000Y-110110000D02*
X80500000Y-110110000D01*
X80500000Y-110110000D02*
X81280000Y-110890000D01*
%TO.N,Net-(D44-A)*%
X91440000Y-136290000D02*
X84600000Y-136290000D01*
X84600000Y-136290000D02*
X83820000Y-135510000D01*
%TO.N,Net-(D45-A)*%
X53340000Y-51690000D02*
X60180000Y-51690000D01*
X60180000Y-51690000D02*
X60960000Y-52470000D01*
%TO.N,Net-(D46-A)*%
X58630000Y-72010000D02*
X59410000Y-72790000D01*
X53340000Y-72010000D02*
X58630000Y-72010000D01*
%TO.N,Net-(D47-A)*%
X53340000Y-92330000D02*
X60180000Y-92330000D01*
X60180000Y-92330000D02*
X60960000Y-93110000D01*
%TO.N,Net-(D48-A)*%
X53340000Y-112650000D02*
X60180000Y-112650000D01*
X60180000Y-112650000D02*
X60960000Y-113430000D01*
%TO.N,Net-(D49-A)*%
X38310000Y-54230000D02*
X39090000Y-55010000D01*
X33020000Y-54230000D02*
X38310000Y-54230000D01*
%TO.N,Net-(D50-A)*%
X38310000Y-74550000D02*
X39090000Y-75330000D01*
X33020000Y-74550000D02*
X38310000Y-74550000D01*
%TO.N,Net-(D51-A)*%
X33020000Y-94870000D02*
X39860000Y-94870000D01*
X39860000Y-94870000D02*
X40640000Y-95650000D01*
%TO.N,R6*%
X183705000Y-151288942D02*
X290242587Y-151288942D01*
X31916100Y-139299000D02*
X37231000Y-139299000D01*
X142161192Y-150067250D02*
X76407250Y-150067250D01*
X30452529Y-140101000D02*
X28009000Y-137657471D01*
X29707471Y-135959000D02*
X30411000Y-136662529D01*
X37231000Y-139299000D02*
X39370000Y-137160000D01*
X53934750Y-139700000D02*
X53533750Y-140101000D01*
X290332529Y-151199000D02*
X292169000Y-151199000D01*
X30411000Y-137793900D02*
X31916100Y-139299000D01*
X53533750Y-140101000D02*
X30452529Y-140101000D01*
X28009000Y-136662529D02*
X28712529Y-135959000D01*
X28009000Y-137657471D02*
X28009000Y-136662529D01*
X66040000Y-139700000D02*
X53934750Y-139700000D01*
X292169000Y-151199000D02*
X293370000Y-152400000D01*
X290242587Y-151288942D02*
X290332529Y-151199000D01*
X28712529Y-135959000D02*
X29707471Y-135959000D01*
X145605000Y-153511058D02*
X142161192Y-150067250D01*
X76407250Y-150067250D02*
X66040000Y-139700000D01*
X30411000Y-136662529D02*
X30411000Y-137793900D01*
%TO.N,Net-(D52-A)*%
X39860000Y-115190000D02*
X40640000Y-115970000D01*
X33020000Y-115190000D02*
X39860000Y-115190000D01*
%TO.N,BT_PIN*%
X46435000Y-142240000D02*
X29210000Y-142240000D01*
X53261250Y-149066250D02*
X46435000Y-142240000D01*
X29210000Y-142240000D02*
X24130000Y-137160000D01*
X278487500Y-137160000D02*
X278487500Y-144780000D01*
X53261250Y-145613750D02*
X52427500Y-144780000D01*
X53261250Y-149066250D02*
X53261250Y-145613750D01*
%TO.N,VBAT*%
X294805471Y-149459000D02*
X297249000Y-151902529D01*
X55086250Y-144115090D02*
X52810160Y-141839000D01*
X316524311Y-154645689D02*
X318770000Y-152400000D01*
X25331000Y-137657471D02*
X25331000Y-136662529D01*
X25331000Y-136662529D02*
X24627471Y-135959000D01*
X297249000Y-151902529D02*
X297249000Y-152897471D01*
X15171000Y-135959000D02*
X13970000Y-137160000D01*
X280312500Y-144780000D02*
X284991500Y-149459000D01*
X24627471Y-135959000D02*
X15171000Y-135959000D01*
X298997218Y-154645689D02*
X316524311Y-154645689D01*
X284991500Y-149459000D02*
X294805471Y-149459000D01*
X52810160Y-141839000D02*
X29512529Y-141839000D01*
X297249000Y-152897471D02*
X298997218Y-154645689D01*
X55086250Y-149066250D02*
X55086250Y-144115090D01*
X29512529Y-141839000D02*
X25331000Y-137657471D01*
%TO.N,Net-(D1-A)*%
X207500000Y-54230000D02*
X208280000Y-55010000D01*
X200660000Y-54230000D02*
X207500000Y-54230000D01*
%TO.N,Net-(D2-A)*%
X206730000Y-75330000D02*
X201440000Y-75330000D01*
X201440000Y-75330000D02*
X200660000Y-74550000D01*
%TO.N,Net-(D3-A)*%
X203090000Y-95650000D02*
X208280000Y-95650000D01*
X202310000Y-94870000D02*
X203090000Y-95650000D01*
X200660000Y-94870000D02*
X202310000Y-94870000D01*
%TO.N,Net-(D4-A)*%
X200660000Y-115190000D02*
X207500000Y-115190000D01*
X207500000Y-115190000D02*
X208280000Y-115970000D01*
%TO.N,Net-(D5-A)*%
X171895000Y-130651058D02*
X177365000Y-125181058D01*
X177365000Y-125181058D02*
X177365000Y-124387149D01*
%TO.N,Net-(D6-A)*%
X182055000Y-148431058D02*
X187525000Y-142961058D01*
X187525000Y-142961058D02*
X187525000Y-142167149D01*
%TO.N,Net-(D7-A)*%
X220980000Y-51690000D02*
X227820000Y-51690000D01*
X227820000Y-51690000D02*
X228600000Y-52470000D01*
%TO.N,Net-(D8-A)*%
X220980000Y-72010000D02*
X227820000Y-72010000D01*
X227820000Y-72010000D02*
X228600000Y-72790000D01*
%TO.N,Net-(D9-A)*%
X220980000Y-92330000D02*
X223520000Y-92330000D01*
X224300000Y-93110000D02*
X228600000Y-93110000D01*
X223520000Y-92330000D02*
X224300000Y-93110000D01*
%TO.N,Net-(D10-A)*%
X220980000Y-112650000D02*
X227820000Y-112650000D01*
X227820000Y-112650000D02*
X228600000Y-113430000D01*
%TO.N,Net-(D11-A)*%
X214415000Y-135510000D02*
X215195000Y-136290000D01*
X210820000Y-135510000D02*
X214415000Y-135510000D01*
%TO.N,Net-(D12-A)*%
X241300000Y-49150000D02*
X248140000Y-49150000D01*
X248140000Y-49150000D02*
X248920000Y-49930000D01*
%TO.N,Net-(D13-A)*%
X241300000Y-69470000D02*
X248140000Y-69470000D01*
X248140000Y-69470000D02*
X248920000Y-70250000D01*
%TO.N,Net-(D14-A)*%
X248140000Y-89790000D02*
X248920000Y-90570000D01*
X241300000Y-89790000D02*
X248140000Y-89790000D01*
%TO.N,Net-(D15-A)*%
X248140000Y-110110000D02*
X248920000Y-110890000D01*
X241300000Y-110110000D02*
X248140000Y-110110000D01*
%TO.N,Net-(D16-A)*%
X233680000Y-132970000D02*
X240520000Y-132970000D01*
X240520000Y-132970000D02*
X241300000Y-133750000D01*
%TO.N,Net-(D17-A)*%
X268460000Y-51690000D02*
X269240000Y-52470000D01*
X261620000Y-51690000D02*
X268460000Y-51690000D01*
%TO.N,Net-(D18-A)*%
X268460000Y-72010000D02*
X269240000Y-72790000D01*
X261620000Y-72010000D02*
X268460000Y-72010000D01*
%TO.N,Net-(D19-A)*%
X266910000Y-92330000D02*
X267690000Y-93110000D01*
X261620000Y-92330000D02*
X266910000Y-92330000D01*
%TO.N,Net-(D20-A)*%
X261620000Y-112650000D02*
X268460000Y-112650000D01*
X268460000Y-112650000D02*
X269240000Y-113430000D01*
%TO.N,Net-(D21-A)*%
X281940000Y-54230000D02*
X288780000Y-54230000D01*
X288780000Y-54230000D02*
X289560000Y-55010000D01*
%TO.N,Net-(D22-A)*%
X288780000Y-74550000D02*
X289560000Y-75330000D01*
X281940000Y-74550000D02*
X288780000Y-74550000D01*
%TO.N,Net-(D23-A)*%
X281940000Y-94870000D02*
X285535000Y-94870000D01*
X281940000Y-94870000D02*
X287230000Y-94870000D01*
X285535000Y-94870000D02*
X286315000Y-95650000D01*
X287230000Y-94870000D02*
X288010000Y-95650000D01*
X286315000Y-95650000D02*
X289560000Y-95650000D01*
%TO.N,Net-(D24-A)*%
X288780000Y-115190000D02*
X289560000Y-115970000D01*
X281940000Y-115190000D02*
X288780000Y-115190000D01*
%TO.N,Net-(D25-A)*%
X309100000Y-54230000D02*
X309880000Y-55010000D01*
X302260000Y-54230000D02*
X309100000Y-54230000D01*
%TO.N,Net-(D26-A)*%
X302260000Y-74550000D02*
X309100000Y-74550000D01*
X309100000Y-74550000D02*
X309880000Y-75330000D01*
%TO.N,Net-(D53-A)*%
X19540000Y-54230000D02*
X20320000Y-55010000D01*
X12700000Y-54230000D02*
X19540000Y-54230000D01*
%TO.N,Net-(D54-A)*%
X12700000Y-74550000D02*
X19540000Y-74550000D01*
X19540000Y-74550000D02*
X20320000Y-75330000D01*
%TO.N,Net-(D55-A)*%
X12700000Y-94870000D02*
X19540000Y-94870000D01*
X19540000Y-94870000D02*
X20320000Y-95650000D01*
%TO.N,Net-(D56-A)*%
X12700000Y-115190000D02*
X19540000Y-115190000D01*
X19540000Y-115190000D02*
X20320000Y-115970000D01*
%TO.N,C6*%
X295910000Y-137160000D02*
X294640000Y-137160000D01*
%TD*%
M02*
